<svg xmlns="http://www.w3.org/2000/svg" xmlns:xlink="http://www.w3.org/1999/xlink" viewBox="0 0 864.47 282.52"><defs><style>.cls-1{fill:url(#linear-gradient);}.cls-2,.cls-4,.cls-5{fill:none;}.cls-3{fill:#edae2f;}.cls-4,.cls-5{stroke:#000;stroke-miterlimit:10;stroke-width:3px;}.cls-5{stroke-dasharray:8.74 8.74;}</style><linearGradient id="linear-gradient" x1="71.79" y1="-44.55" x2="182.21" y2="215.58" gradientUnits="userSpaceOnUse"><stop offset="0.42" stop-color="#01ccfe"/><stop offset="0.48" stop-color="#16d0fe" stop-opacity="0.92"/><stop offset="0.62" stop-color="#4ddbfe" stop-opacity="0.7"/><stop offset="0.81" stop-color="#a4edff" stop-opacity="0.36"/><stop offset="1" stop-color="#fff" stop-opacity="0"/></linearGradient></defs><g id="Layer_2" data-name="Layer 2"><g id="Layer_1-2" data-name="Layer 1"><path d="M417.79,66a47.14,47.14,0,0,0-11.32-5.25q-6.21-2-12.41-3.29T382.67,54.9a28,28,0,0,1-8.33-3.21,6,6,0,0,1-3.14-5.33,7.36,7.36,0,0,1,1.61-4.67,10.94,10.94,0,0,1,5.26-3.29,30.58,30.58,0,0,1,9.64-1.24,52.34,52.34,0,0,1,13.87,2A69.4,69.4,0,0,1,416,45L425,23.58a62.87,62.87,0,0,0-17.31-6.65,86.8,86.8,0,0,0-19.79-2.26q-15,0-25.12,4.52t-15.11,12a29.06,29.06,0,0,0-5,16.65q0,8.18,3.21,13.51A26.19,26.19,0,0,0,354.11,70a49.74,49.74,0,0,0,11.32,5.33,119.18,119.18,0,0,0,12.42,3.36q6.19,1.31,11.32,2.63a29,29,0,0,1,8.32,3.35,6.31,6.31,0,0,1,3.21,5.55A6.17,6.17,0,0,1,399,94.48a11.72,11.72,0,0,1-5.34,2.92,34.46,34.46,0,0,1-9.64,1.1,58.88,58.88,0,0,1-17.89-2.85,67,67,0,0,1-15.84-7.23l-9.5,21.32q7.31,5,18.92,8.11A92.28,92.28,0,0,0,383.91,121q15.18,0,25.19-4.53t15-12a28.89,28.89,0,0,0,5-16.43q0-8-3.14-13.36A25.41,25.41,0,0,0,417.79,66Z"/><polygon points="612.27 16.71 587.97 57.28 563.78 16.71 539.97 16.71 533.25 16.71 508.13 16.71 468.55 59.18 468.55 16.71 439.93 16.71 439.93 118.95 468.55 118.95 468.55 93.33 479.29 81.83 508.57 118.95 542.16 118.95 498.23 61.93 535.89 21.13 572.25 81.87 572.25 118.95 601.17 118.95 601.17 82.32 640.31 16.71 612.27 16.71"/><path d="M571.49,143.63l-46.3,102.23h15l11.23-25.56h54.36l11.23,25.56h15.33L586,143.63Zm-14.89,65,22-50.17,22,50.17Z"/><polygon points="720.9 219.81 659.56 143.63 647.58 143.63 647.58 245.86 662.19 245.86 662.19 169.68 723.53 245.86 735.5 245.86 735.5 143.63 720.9 143.63 720.9 219.81"/><path d="M857.53,168a47.55,47.55,0,0,0-19.43-18q-12.48-6.42-28.84-6.42H766.17V245.86h43.09q16.35,0,28.84-6.42a47.55,47.55,0,0,0,19.43-18q6.93-11.53,6.94-26.73T857.53,168Zm-12.78,46.81a35.09,35.09,0,0,1-14.39,13.51q-9.27,4.82-22,4.82h-27.6V156.33h27.6q12.71,0,22,4.82a35.26,35.26,0,0,1,14.39,13.44,42.16,42.16,0,0,1,0,40.24Z"/><path d="M427.41,201l-11-3.63a66.11,66.11,0,0,1-1.94,8.1L391.6,192.36c-1.58-.91-3.16-1.82-4.74-2.75a87,87,0,0,0,7.77-5.09,32.72,32.72,0,0,0,9.12-9.64,21.33,21.33,0,0,0,2.85-10.81,19.35,19.35,0,0,0-12-18.76,32.52,32.52,0,0,0-13.44-2.56,34.53,34.53,0,0,0-14.53,2.85,22.52,22.52,0,0,0-9.64,8,21.33,21.33,0,0,0-3.43,12.05,23.39,23.39,0,0,0,1.31,7.74c.08.23.16.45.25.68,2.26,6,6.38,10.62,11.23,14.6-2.64,1.43-5.24,2.91-7.75,4.54-9.12,5.95-17.38,15.06-17.66,25.94-.2,8,4.12,15.67,10.4,20.57s14.33,7.2,22.29,7.54c1,.05,2.1.06,3.15,0a52.45,52.45,0,0,0,32.9-12.55,51.9,51.9,0,0,0,10.42-12.36l7.51,4.55,6.78-10.09q-4.65-2.65-9.29-5.32A50.92,50.92,0,0,0,427.41,201Zm-54.86-22.37a23.17,23.17,0,0,1-5.45-9.32,13.19,13.19,0,0,1,1.34-10.5c2.59-4,7.61-5.81,12.36-5.89,5.8-.11,12.29,2.8,13.78,8.41,1.58,5.91-3,11.68-7.81,15.42a77.92,77.92,0,0,1-9.63,6.22A42.77,42.77,0,0,1,372.55,178.61Zm22.81,52.5a36.69,36.69,0,0,1-17.67,4.24,32.53,32.53,0,0,1-12.05-2,18.17,18.17,0,0,1-8-5.77,13.67,13.67,0,0,1-2.85-8.54,16.86,16.86,0,0,1,2.12-8.33A26.57,26.57,0,0,1,364,203a83.7,83.7,0,0,1,12-7.51c2.43,1.54,4.86,3,7.19,4.49,8.8,5.57,17.77,10.88,26.7,16.24A37,37,0,0,1,395.36,231.11Z"/><path d="M507.16,196.64a56.44,56.44,0,0,0-12.13-5q-6.64-1.91-13.21-3.43a120.54,120.54,0,0,1-12.05-3.44,24.62,24.62,0,0,1-8.91-5.11,11.22,11.22,0,0,1-3.43-8.62,13.93,13.93,0,0,1,2.55-8.17,17.23,17.23,0,0,1,8.11-5.85q5.55-2.19,14.16-2.19a54.45,54.45,0,0,1,14.17,2,47.15,47.15,0,0,1,13.88,6.36l4.82-11.69a49.19,49.19,0,0,0-15.19-6.71,68.27,68.27,0,0,0-17.68-2.34q-13.42,0-22.12,4t-12.85,10.66a26.8,26.8,0,0,0-4.17,14.53q0,8.18,3.36,13.36a24.74,24.74,0,0,0,8.84,8.25,58.59,58.59,0,0,0,12.12,5q6.65,2,13.22,3.43a99.23,99.23,0,0,1,12.05,3.44,25.46,25.46,0,0,1,8.91,5.18,11.11,11.11,0,0,1,3.43,8.47,13.38,13.38,0,0,1-2.63,8.11,17.08,17.08,0,0,1-8.18,5.62q-5.55,2.06-14.46,2.05a53.75,53.75,0,0,1-18.84-3.36,64.5,64.5,0,0,1-7.7-3.46c-2-1.06-4-2.18-6-3.36l-6.56,9.75-.26.4,1.86,1a48.22,48.22,0,0,0,15.19,7.88A69.56,69.56,0,0,0,479.77,247q13.44,0,22.27-4t13.08-10.66A26.27,26.27,0,0,0,519.35,218q0-8-3.36-13.15A25.15,25.15,0,0,0,507.16,196.64Z"/><circle class="cls-1" cx="150.66" cy="141.26" r="141.26"/><path d="M228.18,28.62c-3.26.7-6.36,1.34-9.44,2.07-.33.08-.65.65-.77,1-.51,1.77-1,3.56-1.4,5.37-.3,1.36-1.31,1.71-2.42,1.83a1.49,1.49,0,0,1-1.09-.87q-2.79-8.32-5.44-16.7a1.78,1.78,0,0,1,.36-1.6c.82-.56,1.82-1,2.8-.19,1.49,1.24,3,2.46,4.45,3.74a1.36,1.36,0,0,0,1.74.2c2.7-1.3,5.44-2.5,8.29-3.8-.48-.52-.9-1-1.35-1.46l-9.24-9.42c-1.1-1.12-.94-1.45.5-2.11a6.39,6.39,0,0,1,6.23.36C226.09,9.7,231,12,235.71,14.51a4.77,4.77,0,0,0,4.12.35,85.91,85.91,0,0,1,9.6-2.87,8.42,8.42,0,0,1,4.36.48c2.34.81,2.89,2.71,1.62,4.87a8.7,8.7,0,0,1-4.88,3.81c-2.54.87-5.1,1.72-7.67,2.49a4.91,4.91,0,0,0-3.19,2.7c-2.63,5.33-5.46,10.57-8,15.94-1.1,2.32-3.22,2.38-5.12,2.95-.8.25-.73-.65-.65-1.21.48-3.27,1-6.53,1.45-9.8C227.61,32.44,227.88,30.66,228.18,28.62Z"/><path class="cls-2" d="M153.75,240.84l-19.62,4.74s.31,3.67-4.27,5.52a12.23,12.23,0,0,0,1.45-.59c.81-.41,1.55-.94,2.32-1.42a4.27,4.27,0,0,1,.73-.46c2.38-.94,4.78-1.84,7.17-2.78,4.05-1.58,8.17-2.95,12.34-4.16a1.18,1.18,0,0,0,.83-.67C153.42,241.14,153.75,240.84,153.75,240.84Z"/><path class="cls-2" d="M152.89,194.28a19.7,19.7,0,0,1,5.58-3.47,3.26,3.26,0,0,0,1.65-1.22c-2-.93-4.22-.47-6.42-1.35l1.48-.49a1,1,0,0,0-1.34-.51c-1,.33-2,.75-3,1.13-.5.19-.53.56-.43,1,.31,1.34.6,2.68.88,4,.11.52.18,1,.27,1.57C152.16,195.09,152.53,194.61,152.89,194.28Z"/><path d="M151.53,195h0v0l0,0Z"/><path d="M117.12,243.31a18.38,18.38,0,0,1-3.77.84c-.08-.43-.2-.87-.25-1.32-.34-2.89-.6-5.8-1-8.69-.67-4.72-1.42-9.43-2.16-14.14-.72-4.51-1.39-9-2.23-13.5s-1.8-9-2.84-13.52c-1.68-7.18-3.37-14.36-5.26-21.48a216.41,216.41,0,0,0-6.77-20.89c-2.13-5.66-4.19-11.33-7.3-16.56a1,1,0,0,1-.19-.43c0-.3,0-.69.15-.86a.92.92,0,0,1,.85-.12,14.37,14.37,0,0,1,2,1.22c.86.61,1.65,1.31,2.51,1.92.6.43,1.31.73,1.89,1.18,2.43,1.89,4.83,3.81,7.24,5.72,1.24,1,2.48,2,3.69,3s2.29,2.05,3.45,3.05c.26.22.78.5.93.39a2,2,0,0,0,.55-1,3.31,3.31,0,0,0,.05-1c0-1.38,0-2.76,0-4.14,0-.57,0-1.18.8-1.52a9.5,9.5,0,0,1,1.45,1.6c1.31,2.36,2.53,4.77,3.81,7.15.34.65.61,1.49,1.17,1.84,1.82,1.15,3.75,2.12,5.65,3.14.06,0,.19-.06.35-.12.63-2.43-.54-4.94-.08-7.37a1.26,1.26,0,0,1,1.55.87c.37.76.76,1.52,1.08,2.3,1,2.46,1.92,5,2.93,7.4.66,1.61.67,1.71-.6,2.79-.41.34-1.1.52-1,1.39a5.17,5.17,0,0,0,.86.22c2.12.09,4.24.18,6.36.24a2.8,2.8,0,0,1,2.05.69c2.68,2.55,5.86,4.53,8.37,7.29a4.43,4.43,0,0,0,1.3.73v0h0c-.11-.67-.2-1.34-.34-2q-.54-2.57-1.12-5.13c-.13-.58-.1-1.05.55-1.29,1.29-.49,2.56-1,3.87-1.45.61-.19,1.34-.24,1.7.66l-1.88.62c2.8,1.13,5.64.53,8.19,1.72a4.13,4.13,0,0,1-2.11,1.56,25.3,25.3,0,0,0-7.12,4.43c-.46.43-.94,1-1.74.88v0l-.05,0c-.43.65-.81,1.33-1.29,1.94s-.93.87-1.34,1.35a26,26,0,0,0-3.59,4.61c-.71,1.32-1.88,2.4-2.58,3.73-1.42,2.66-2.68,5.41-4,8.14a20.32,20.32,0,0,0-1.37,5.27,4.18,4.18,0,0,0,1.74-1.38,22.4,22.4,0,0,1,6.53-5.25,3.19,3.19,0,0,0,1.65-2c.38-1.22.83-2.41,1.28-3.6.18-.48.34-1,1.1-1.05.75,1.2.15,2.57.41,3.91,1.93-.62,3.51-1.46,4.2-3.53a15.48,15.48,0,0,1,1.64-3.08c.17-.29.6-.43,1-.72.66,1.38.14,2.69.46,4.07a12.88,12.88,0,0,0,1.16-.73c2.93-2.36,5.86-4.72,8.77-7.11a4.86,4.86,0,0,1,2.8-1.13,5,5,0,0,1-.21,1c-.64,1.39-1.35,2.75-2,4.14s-1.18,2.69-1.67,4.07c-.39,1.09-.54,2.27-1,3.34a128.89,128.89,0,0,0-4.43,14.75c-.49,1.84-.93,3.69-1.39,5.53,0,.16-.16.31-.15.46.12,1.68-.61,3.19-.91,4.79-.51,2.7-.93,5.42-1.4,8.13-.19,1.1-.42,2.19-.59,3.29-.27,1.77-.5,3.56-.76,5.33a2.44,2.44,0,0,1-.12.45,63.18,63.18,0,0,0,8-1.61l.3-.07c-.2,0-.4.1-.6.13-.49.1-1,.14-1.63.22a12.47,12.47,0,0,1,0-1.75c.79-5.45,1.58-10.91,2.45-16.35.41-2.61.95-5.2,1.5-7.79.93-4.36,1.84-8.72,2.9-13s2.31-8.6,3.48-12.89a6.72,6.72,0,0,1,.5-1.34.8.8,0,0,1,1.5-.05,8.24,8.24,0,0,1,.57,1.48c.53,1.38,1.07,2.76,1.56,4.16a2.05,2.05,0,0,0,2.25,1.6,3.8,3.8,0,0,1,.81.21,14.15,14.15,0,0,1-.51,1.48,3.7,3.7,0,0,0,0,3.62c.93,1.72,1.65,3.54,2.46,5.31h1.83c0,1.91-.52,3.81.31,5.64s1.42,3.47,2.24,5.51c.36-.7.61-1.13.81-1.59a31.05,31.05,0,0,0,1.85-6.89,75.05,75.05,0,0,0,.93-13.8,15.22,15.22,0,0,1,0-1.91c.09-.77.46-1,1.22-.77,1.11.36,2.19.81,3.29,1.2.38.13.77.23,1.16.34.36-.65.66-1.17,1.09-1.93a6.09,6.09,0,0,1,.81,1.19c.38,1.22.75,2.44,1,3.68a1.68,1.68,0,0,0,1.14,1.37c.63.25,1.19.69,1.8,1,.45.23,1,.38,1.41.61a2.72,2.72,0,0,1,.73.48c.77.73,1.15.65,1.59-.36.26-.63.49-1.28.77-1.91.05-.12.24-.18.55-.4a9.86,9.86,0,0,1,.7,1.54c.17.6.18,1.26.32,1.88.08.34.19.81.44,1,1.21.74,2.26,1.82,3.79,1.88a1.42,1.42,0,0,1,1.36.89,1.31,1.31,0,0,0,.83.61.94.94,0,0,0,.75-.52,3,3,0,0,0-.16-1.25c-1.87-7.93-6.18-14.3-12.25-19.65a67.13,67.13,0,0,0-12-8.29c-.74-.41-1.54-.71-2.28-1.11a8.75,8.75,0,0,1-1.19-1,40,40,0,0,1,7.91-3.37c-1-.62-2.07-.76-2.22-2,.66-.59,1.4-.19,2.08-.07a18.19,18.19,0,0,1,1.79.63,2.63,2.63,0,0,0,1.23.13c1.66-.44,3.31-.95,5-1.44-.57-1-2-1.19-2.8-2.5a8.68,8.68,0,0,1,5.15.95,2.71,2.71,0,0,0,2.41.29,42.42,42.42,0,0,1,9.43-2.15,5.92,5.92,0,0,0,.91-.29,18.61,18.61,0,0,0-4.83-2.91c-6.29-2.94-12.75-2.61-19.28-.92a33,33,0,0,0-10.67,5.18,32,32,0,0,0-3.3,3c-.34.31-.63.68-1,1.08-1.33-.73-.88-3-3-3-.53.75-1.13,1.59-1.74,2.43-.87,0-1-.64-1.22-1.23a27.37,27.37,0,0,0-7.46-11.36,19.36,19.36,0,0,0-12.93-5.38c-.65,0-1.4-.21-1.94.72.47.4.95.77,1.39,1.19,2.51,2.36,5,4.75,7.54,7.09a15,15,0,0,0,2.06,1.41c.69.45,1.61.65,1.47,1.82,0,.28.35.62.55.92,1.37,2,2.76,4,4.09,6.05a3.59,3.59,0,0,1,.26,1.27c-1,.32-1.5-.23-2.06-.6a28.32,28.32,0,0,0-3.42-2.29,22.23,22.23,0,0,0-13.83-1.64c-1.41.26-1.47.23-2.09-1a90.26,90.26,0,0,0-6.89-11.63,111.87,111.87,0,0,0-9.66-11.82A53.49,53.49,0,0,0,108.81,119a33.17,33.17,0,0,0-8.1-3.64,17.57,17.57,0,0,1-2.26-.89c.41-.86,1.1-.86,1.68-.93,4.58-.59,9.06-1.83,13.72-1.83a6.12,6.12,0,0,0,1.07-.22,4.92,4.92,0,0,0-3-1.91,6.35,6.35,0,0,1-1.38-.35.89.89,0,0,1-.38-.76.84.84,0,0,1,.63-.54,4.69,4.69,0,0,1,1.71.24c2.2.78,4.36,1.64,6.55,2.44a3.22,3.22,0,0,0,1.23.21c1.44,0,2.87-.06,4.3-.11l6.84-.22c.56,0,1.12-.06,1.94-.11a6.09,6.09,0,0,0-.66-1.07c-.39-.36-.86-.63-1.25-1s-1-.71-.58-1.28c.17-.22.9-.23,1.27-.07,2.21.9,4.37,1.91,6.58,2.81a7.15,7.15,0,0,0,2.58.64c3.18,0,6.37-.12,9.55-.32a25.73,25.73,0,0,0,3.8-.89c-.75-.77-1.21-1.34-1.76-1.8A61.94,61.94,0,0,0,130.41,95a45.45,45.45,0,0,0-16.54-1.59,28.2,28.2,0,0,0-11.18,3.21c-2.14,1.15-4.35,2.16-6.49,3.32a20.71,20.71,0,0,0-2.13,1.66c-.74.55-1.44,1.25-2.58,1.07a3.28,3.28,0,0,1,.65-2.42q2.4-4.21,4.91-8.37a11.21,11.21,0,0,1,1.6-2,6.26,6.26,0,0,0,2.09-3.12,1.6,1.6,0,0,1,.79-.93c3.6-1.8,6.09-4.92,9-7.53q6.39-5.75,12.73-11.54a12.54,12.54,0,0,0,1.13-1.36,7.92,7.92,0,0,0-3.75-.57,37.46,37.46,0,0,0-11.27,1.79,26.39,26.39,0,0,0-4.62,2,63.73,63.73,0,0,0-6,3.58,28,28,0,0,0-6.72,6c-1.67,2.19-3.41,4.29-4.91,6.63a57.69,57.69,0,0,0-5.78,11.61,16.22,16.22,0,0,1-1.19,2.1,5.35,5.35,0,0,1-.63-1.16,6.07,6.07,0,0,0-2.08-3.29c-2-1.85-4.08-.61-4.72,1.17-.31.84-.47,1.73-.72,2.6-.12.42-.28.83-.52,1.52-.92-1.32-1.6-2.37-2.36-3.38a11,11,0,0,0-1.49-1.64A55.11,55.11,0,0,0,54.77,86a64.4,64.4,0,0,0-13.59-4.86,77.12,77.12,0,0,0-13.71-1.75,8.49,8.49,0,0,0-1.58.13,21.66,21.66,0,0,1-3,.37c-2.87-.07-5.54.83-8.23,1.57-1.77.49-3.5,1.13-5.22,1.77A13.63,13.63,0,0,0,7.2,84.36c-1.72,1-3.42,2.11-5.11,3.19C1.44,88,.84,88.46,0,89.08a5.78,5.78,0,0,0,1.23.55C6.73,90.34,12,92,17.3,93.51c.71.21,1.41.46,2.13.66a5,5,0,0,0,3.16-.46c2.78-1,5.69-1.58,8.55-2.32.16,0,.37.13.61.22-.08.93-.77,1.25-1.36,1.66-1,.66-1.92,1.32-2.84,2a6.31,6.31,0,0,0-.91,1.18,10.09,10.09,0,0,0,1.54.35,25.67,25.67,0,0,1,7.44,1.62q.83.27,1.68.48a2.38,2.38,0,0,0,2-.31c2-1.21,4.23-1.27,6.45-1.43.17,0,.36.15.74.33-1.33,1.43-3.3,1.69-4.47,3.06.06.88.8.89,1.37,1.09,1.8.63,3.66,1.12,5.39,1.9,2.11,1,4.12,2.17,6.17,3.28.17.09.27.3.52.61-.57.37-1.07.73-1.59,1-4.24,2.39-8.59,4.59-12.69,7.19a77.26,77.26,0,0,0-14.44,11.16c-2,2.08-4.24,4-6.15,6.2a70.92,70.92,0,0,0-8.26,11.27c-.21.36-.45.72-.64,1.1-1.09,2.23-2.29,4.43-3.21,6.73a44.82,44.82,0,0,0-1.62,5.63c-.38,1.49-.68,3-1,4.49-.24,1.08-.45,2.16-.68,3.26.44.38.85.06,1.26-.16,3.55-1.9,7.09-3.82,10.66-5.68A2.91,2.91,0,0,0,18.93,157c.07-1.69.33-3.38.54-5.06a10.59,10.59,0,0,1,.36-1.39c1.14.29,1.41,1.12,1.68,1.9.53,1.55,1,3.12,1.49,4.67,1.57-.18,9.32-4.39,12.19-6.61-.43-1.62.21-3.17.7-4.7.62-2,1.4-3.9,2.12-5.84.17-.45.3-.93,1.07-.85.62,1.21.15,2.54.23,3.81s.13,2.62.21,4.26c.72-.46,1.15-.71,1.56-1,2.48-1.73,4.93-3.49,7.43-5.18.49-.32,1.27-.67,1.71-.49.73.3.42,1.18.42,1.86,0,5.3-.2,10.62,0,15.91.21,4.33.84,8.65,1.47,12.94A80.9,80.9,0,0,0,54,179.92a39.34,39.34,0,0,0,3.26,7.43c.49-1.33.88-2.29,1.21-3.26,1.26-3.72,2.52-7.43,3.72-11.17a4.18,4.18,0,0,0,0-2c-.29-1.35-.76-2.65-1.08-4a2.24,2.24,0,0,1,.53-2.1c1.38.48,1.48,2.06,2.69,2.9a16,16,0,0,0,1-1.51c1.32-2.72,2.61-5.45,3.9-8.18.73-1.53,1.46-3.06,2.14-4.62a2.32,2.32,0,0,0,.24-1.37c-.09-.37-.59-.62-.88-.95a4.27,4.27,0,0,1-.67-.88c-.6-1.22-1.16-2.46-1.78-3.79a2.32,2.32,0,0,1,2,.42c.48.23.91.56,1.38.81.88.45,1.16.33,1.54-.61.84-2.06,1.7-4.12,2.52-6.19,1-2.51,1.94-5,3-7.55.12-.3.45-.51.68-.76.29.28.71.51.83.85.66,1.9,1.29,3.82,1.88,5.74,1.3,4.26,2.49,8.55,3.9,12.78a41.4,41.4,0,0,1,1.59,5.37c.74,3.84,1.7,7.63,2.57,11.45a3.28,3.28,0,0,0,.24.75c1.1,2.34,1,5,1.68,7.37s.88,4.67,1.36,7c.71,3.41,1.46,6.82,2.08,10.25.71,4,1.55,7.91,2,11.91a80.22,80.22,0,0,0,1.2,8.16c.23,1,.06,2.11.2,3.16a23.69,23.69,0,0,0,.61,2.45,2.87,2.87,0,0,1,.23,1.07c-.33,1.69.27,3.23.62,4.82a5,5,0,0,1,.1.95c0,4.05.85,8,1.39,12,.38,2.83.44,5.71.65,8.56,0,.63.07,1.26.11,2.05l-.29.22c2.63-1.14,9.79-4.21,14.63-6.09Z"/><path class="cls-3" d="M254.31,236.8l-.67-.84c-8.49-10.81-25.8-15.63-38.7-18.21C174.29,209.62,138.14,228.49,103,246c-10.43,5.2-21.2,8.49-32.38,11.59,19.47,12.91,40.79,22.43,63.07,24.18,39.37,3.09,66.52-4.11,95.08-22.59a170.58,170.58,0,0,0,16.57-12.24,107.14,107.14,0,0,0,8.22-7.28C255,238.13,255.12,237.88,254.31,236.8Z"/><path class="cls-4" d="M36.81,58.28a31.4,31.4,0,0,1,2.79-3.52"/><path class="cls-5" d="M45.93,48.75c12.19-9.94,37.32-22.52,79.65-10.54,29.05,8.22,55.38,1.65,68.2-2.85"/><path class="cls-4" d="M197.87,33.83C200.54,32.76,202,32,202,32"/></g></g></svg>