<svg xmlns="http://www.w3.org/2000/svg" xmlns:xlink="http://www.w3.org/1999/xlink" viewBox="0 0 1417 1417"><defs><style>.cls-1{fill:#fff;}.cls-2{fill:url(#linear-gradient);}.cls-3,.cls-5,.cls-6{fill:none;}.cls-4{fill:#edae2f;}.cls-5,.cls-6{stroke:#000;stroke-miterlimit:10;stroke-width:3px;}.cls-6{stroke-dasharray:9 9;}.cls-7,.cls-8{font-size:110.5px;}.cls-7{font-family:Montserrat-ExtraBold, Montserrat;font-weight:800;}.cls-8{font-family:Montserrat-Medium, Montserrat;font-weight:500;}</style><linearGradient id="linear-gradient" x1="530.32" y1="254.83" x2="791.67" y2="870.53" gradientUnits="userSpaceOnUse"><stop offset="0.42" stop-color="#01ccfe"/><stop offset="0.48" stop-color="#16d0fe" stop-opacity="0.92"/><stop offset="0.62" stop-color="#4ddbfe" stop-opacity="0.7"/><stop offset="0.81" stop-color="#a4edff" stop-opacity="0.36"/><stop offset="1" stop-color="#fff" stop-opacity="0"/></linearGradient></defs><g id="Layer_2" data-name="Layer 2"><g id="Layer_1-2" data-name="Layer 1"><rect class="cls-1" width="1417" height="1417"/><circle class="cls-2" cx="717" cy="694.62" r="334.35"/><path d="M900.48,428c-7.73,1.66-15.06,3.17-22.34,4.89-.78.18-1.56,1.53-1.83,2.48-1.22,4.2-2.38,8.43-3.31,12.7-.71,3.22-3.11,4.07-5.73,4.33-.81.09-2.28-1.13-2.58-2q-6.62-19.72-12.89-39.55c-.35-1.12.05-3.24.85-3.79,1.94-1.32,4.33-2.33,6.64-.43,3.53,2.92,7.1,5.81,10.54,8.84,1.37,1.2,2.43,1.29,4.12.48,6.37-3.08,12.86-5.92,19.6-9-1.12-1.23-2.12-2.38-3.18-3.47q-10.92-11.14-21.87-22.29c-2.6-2.65-2.24-3.44,1.18-5,5.16-2.32,9.67-2,14.74.86,11.11,6.17,22.63,11.61,33.88,17.54a11.24,11.24,0,0,0,9.76.84,203.31,203.31,0,0,1,22.7-6.8c3.22-.72,7.1,0,10.32,1.13,5.55,1.92,6.84,6.43,3.84,11.54a20.6,20.6,0,0,1-11.56,9c-6,2.07-12.05,4.07-18.14,5.9a11.52,11.52,0,0,0-7.54,6.39c-6.25,12.61-12.95,25-19,37.71-2.61,5.49-7.62,5.64-12.12,7-1.89.57-1.73-1.54-1.53-2.88q1.69-11.59,3.44-23.18C899.12,437.06,899.76,432.84,900.48,428Z"/><path class="cls-3" d="M724.31,930.31l-46.43,11.24s.72,8.68-10.12,13.06a25.73,25.73,0,0,0,3.43-1.41c1.91-1,3.67-2.22,5.49-3.35a11.35,11.35,0,0,1,1.72-1.1c5.66-2.21,11.34-4.35,17-6.57,9.58-3.75,19.33-7,29.19-9.86a2.75,2.75,0,0,0,2-1.58C723.52,931,724.31,930.31,724.31,930.31Z"/><path class="cls-3" d="M722.27,820.11a47.06,47.06,0,0,1,13.2-8.21,7.72,7.72,0,0,0,3.92-2.89c-4.73-2.2-10-1.1-15.2-3.19l3.49-1.15c-.67-1.67-2-1.59-3.16-1.22-2.43.77-4.78,1.78-7.17,2.68-1.19.45-1.26,1.31-1,2.4q1.08,4.74,2.08,9.5c.25,1.23.43,2.48.64,3.71C720.53,822,721.42,820.9,722.27,820.11Z"/><path d="M719.05,821.74H719l0,0,.1,0Z"/><path d="M637.6,936.15a41.73,41.73,0,0,1-8.91,2c-.2-1-.47-2-.59-3.11-.81-6.85-1.42-13.74-2.39-20.57-1.59-11.17-3.36-22.33-5.13-33.48-1.69-10.65-3.29-21.33-5.28-31.93s-4.24-21.4-6.72-32c-4-17-8-34-12.45-50.84a512.07,512.07,0,0,0-16-49.43c-5-13.4-9.93-26.83-17.29-39.2a2.31,2.31,0,0,1-.45-1c0-.7,0-1.64.37-2a2.17,2.17,0,0,1,2-.28,34.92,34.92,0,0,1,4.8,2.89c2,1.44,3.92,3.09,6,4.55,1.42,1,3.08,1.72,4.46,2.79,5.75,4.46,11.44,9,17.14,13.54,2.93,2.34,5.87,4.68,8.73,7.11s5.41,4.86,8.18,7.22c.6.52,1.84,1.18,2.19.93a4.58,4.58,0,0,0,1.31-2.39,7.33,7.33,0,0,0,.1-2.25c0-3.27-.06-6.54,0-9.8,0-1.35-.1-2.8,1.91-3.61,1.15,1.26,2.61,2.35,3.42,3.81,3.12,5.58,6,11.28,9,16.92.82,1.53,1.45,3.52,2.77,4.35,4.31,2.72,8.88,5,13.37,7.43.14.08.45-.14.84-.28,1.49-5.76-1.28-11.71-.19-17.44,2.32-.42,3,.77,3.66,2,.89,1.8,1.81,3.59,2.55,5.45,2.35,5.82,4.55,11.7,7,17.5,1.57,3.82,1.59,4.06-1.43,6.61-1,.82-2.59,1.22-2.3,3.28a9.33,9.33,0,0,0,2,.53c5,.23,10,.43,15.06.57a6.7,6.7,0,0,1,4.85,1.63c6.34,6,13.87,10.74,19.81,17.26A10.83,10.83,0,0,0,703,766.6l0,0h.09c-.27-1.58-.49-3.16-.82-4.73q-1.28-6.08-2.64-12.14c-.32-1.38-.23-2.48,1.29-3.06,3.05-1.14,6.06-2.43,9.16-3.42,1.45-.46,3.17-.57,4,1.56l-4.46,1.47c6.65,2.66,13.36,1.26,19.4,4.07-1.34,2.13-3.18,2.87-5,3.69-6.09,2.73-11.9,5.87-16.85,10.48-1.08,1-2.22,2.47-4.11,2.08v.09l-.12-.06c-1,1.54-1.91,3.15-3,4.58-.93,1.17-2.2,2.07-3.18,3.2-3,3.48-6.25,6.76-8.49,10.91-1.69,3.14-4.45,5.7-6.12,8.84-3.34,6.3-6.33,12.8-9.35,19.26-1.74,3.74-2.43,7.79-3.23,12.46a10,10,0,0,0,4.11-3.25,53.23,53.23,0,0,1,15.46-12.43,7.5,7.5,0,0,0,3.9-4.71c.9-2.88,2-5.7,3-8.52.42-1.13.8-2.42,2.62-2.47,1.76,2.84.35,6.07,1,9.24,4.56-1.47,8.3-3.44,9.93-8.35a36.9,36.9,0,0,1,3.87-7.28c.42-.7,1.44-1,2.47-1.72,1.58,3.28.34,6.37,1.08,9.64a27.67,27.67,0,0,0,2.76-1.73q10.39-8.38,20.76-16.84a11.51,11.51,0,0,1,6.63-2.67,11.77,11.77,0,0,1-.51,2.44c-1.52,3.29-3.19,6.5-4.66,9.81s-2.78,6.36-4,9.62c-.92,2.58-1.27,5.37-2.29,7.91-4.53,11.33-7.36,23.16-10.49,34.91-1.16,4.35-2.2,8.73-3.3,13.1-.09.36-.37.72-.34,1.07.28,4-1.44,7.57-2.16,11.35-1.21,6.39-2.21,12.83-3.31,19.25-.45,2.59-1,5.17-1.4,7.77-.64,4.2-1.18,8.42-1.8,12.63a4.78,4.78,0,0,1-.29,1.07c2.85-.28,8.36-1.25,18.93-3.82l.7-.18c-.47.12-.94.24-1.42.32-1.16.22-2.35.32-3.87.52a32.86,32.86,0,0,1,0-4.14c1.89-12.9,3.75-25.82,5.8-38.7,1-6.18,2.26-12.32,3.57-18.45,2.2-10.3,4.34-20.63,6.86-30.86s5.46-20.35,8.24-30.51a15.07,15.07,0,0,1,1.18-3.17c.9-1.65,2.55-1.72,3.54-.1a20.31,20.31,0,0,1,1.37,3.48c1.23,3.28,2.52,6.54,3.68,9.85.9,2.57,2.49,4,5.32,3.8a8,8,0,0,1,1.91.49c-.43,1.28-.7,2.44-1.18,3.49-1.33,2.87-1.71,5.55-.07,8.58,2.2,4.06,3.92,8.39,5.84,12.57h4.32c0,4.51-1.22,9,.73,13.34,1.83,4,3.36,8.22,5.31,13.06.84-1.66,1.43-2.69,1.91-3.78,2.28-5.21,3.36-10.75,4.38-16.31,2-10.8,2.22-21.71,2.19-32.65A40.07,40.07,0,0,1,792,788c.21-1.84,1.09-2.4,2.89-1.82,2.62.86,5.18,1.9,7.78,2.83.9.32,1.83.54,2.74.81l2.59-4.58a13.76,13.76,0,0,1,1.91,2.84c.91,2.87,1.78,5.76,2.4,8.7A4,4,0,0,0,815,800c1.5.6,2.82,1.62,4.27,2.37,1.07.55,2.24.91,3.33,1.43a6.72,6.72,0,0,1,1.72,1.15c1.83,1.73,2.74,1.55,3.77-.86.63-1.49,1.17-3,1.83-4.51.12-.28.57-.43,1.31-1a25.51,25.51,0,0,1,1.65,3.64c.41,1.44.43,3,.76,4.46.18.81.44,1.92,1,2.28,2.85,1.75,5.35,4.31,9,4.44a3.38,3.38,0,0,1,3.22,2.11,3,3,0,0,0,2,1.43,2.15,2.15,0,0,0,1.76-1.23,7.16,7.16,0,0,0-.37-2.93c-4.42-18.78-14.64-33.86-29-46.53a158.75,158.75,0,0,0-28.41-19.61c-1.75-1-3.64-1.68-5.4-2.64a22.83,22.83,0,0,1-2.82-2.26,95,95,0,0,1,18.73-8c-2.3-1.45-4.9-1.8-5.26-4.68,1.57-1.39,3.32-.44,4.92-.16s2.81,1.07,4.25,1.48a6,6,0,0,0,2.9.3c3.94-1,7.84-2.23,11.83-3.39-1.33-2.31-4.64-2.81-6.63-5.93,4.81-.29,8.73.23,12.2,2.25a6.41,6.41,0,0,0,5.71.7,101.2,101.2,0,0,1,22.32-5.1,15.28,15.28,0,0,0,2.15-.67c-3.61-3.22-7.53-5.09-11.42-6.9-14.9-7-30.2-6.17-45.65-2.18-9.25,2.39-17.52,6.84-25.26,12.27-2.84,2-5.23,4.64-7.8,7-.8.75-1.5,1.61-2.36,2.55-3.15-1.71-2.08-7.15-7.13-7L754,730.12c-2.06.07-2.43-1.51-2.9-2.92-3.47-10.54-9.68-19.33-17.65-26.87a45.91,45.91,0,0,0-30.62-12.75c-1.53-.06-3.31-.48-4.57,1.71,1.1,1,2.23,1.84,3.27,2.82,5.95,5.59,11.84,11.25,17.85,16.78a37.35,37.35,0,0,0,4.89,3.35c1.61,1,3.81,1.52,3.47,4.29-.09.67.83,1.47,1.31,2.18,3.24,4.77,6.53,9.5,9.68,14.32.52.79.42,2,.61,3-2.37.75-3.56-.55-4.87-1.42-2.71-1.8-5.19-4-8.1-5.42a52.69,52.69,0,0,0-32.74-3.88c-3.33.61-3.47.54-4.93-2.44a214.8,214.8,0,0,0-16.32-27.51,262.6,262.6,0,0,0-22.86-28A126.66,126.66,0,0,0,617.94,642c-6.11-3.4-12.25-6.9-19.18-8.6a43.24,43.24,0,0,1-5.34-2.1c1-2,2.61-2,4-2.21,10.82-1.4,21.44-4.33,32.46-4.32a14.43,14.43,0,0,0,2.54-.54,11.62,11.62,0,0,0-7-4.52,15.19,15.19,0,0,1-3.27-.81,2.15,2.15,0,0,1-.89-1.81,2,2,0,0,1,1.48-1.28,12.11,12.11,0,0,1,4.07.56c5.18,1.86,10.3,3.89,15.48,5.79a8.32,8.32,0,0,0,2.93.5c3.39,0,6.78-.15,10.17-.26q8.08-.24,16.18-.52c1.33-.05,2.66-.15,4.6-.27a14.82,14.82,0,0,0-1.57-2.53c-.91-.86-2-1.48-3-2.32s-2.37-1.68-1.36-3c.4-.54,2.12-.54,3-.19,5.22,2.14,10.34,4.54,15.56,6.67a16.67,16.67,0,0,0,6.12,1.5c7.53-.05,15.08-.27,22.59-.75,2.8-.18,5.53-1.27,9-2.11-1.77-1.82-2.86-3.16-4.16-4.25-15.85-13.26-33.24-23.62-53.3-29.48a107.69,107.69,0,0,0-39.14-3.75,66.79,66.79,0,0,0-26.45,7.59c-5.07,2.72-10.31,5.12-15.36,7.87-1.84,1-3.33,2.65-5,3.91s-3.43,3-6.12,2.54c-.5-2.27.58-4.06,1.53-5.73q5.7-10,11.64-19.81a27.22,27.22,0,0,1,3.78-4.67c2.1-2.17,4.32-4.16,4.94-7.38a3.78,3.78,0,0,1,1.88-2.2c8.52-4.26,14.41-11.63,21.3-17.82q15.12-13.6,30.12-27.31a32.15,32.15,0,0,0,2.69-3.23c-3.13-1.53-6.05-1.32-8.89-1.34A88.08,88.08,0,0,0,619.26,518a62.57,62.57,0,0,0-10.94,4.81,154.87,154.87,0,0,0-14.19,8.47c-5.91,4-11.51,8.51-15.91,14.29-3.94,5.17-8.07,10.14-11.63,15.68a136.72,136.72,0,0,0-13.66,27.48,36.5,36.5,0,0,1-2.82,5,12.45,12.45,0,0,1-1.5-2.73c-.65-3.26-2.57-5.63-4.93-7.8-4.77-4.37-9.64-1.42-11.16,2.77-.73,2-1.11,4.11-1.7,6.16-.28,1-.67,2-1.25,3.6-2.16-3.12-3.78-5.62-5.57-8a26.56,26.56,0,0,0-3.54-3.88,130.22,130.22,0,0,0-30.42-20,152.31,152.31,0,0,0-32.18-11.52,186.41,186.41,0,0,0-32.43-4.15,23.83,23.83,0,0,0-3.75.32c-2.35.29-4.71.93-7.05.87-6.79-.17-13.11,2-19.49,3.73-4.19,1.15-8.28,2.67-12.36,4.19a32,32,0,0,0-5.33,2.68c-4.08,2.45-8.1,5-12.11,7.55-1.53,1-2.94,2.13-4.94,3.6a13.74,13.74,0,0,0,2.9,1.32c13,1.67,25.5,5.52,38,9.17,1.69.49,3.34,1.1,5,1.56,2.65.74,4.9-.15,7.49-1.07,6.57-2.33,13.46-3.76,20.23-5.5.38-.09.88.3,1.45.52-.19,2.2-1.82,3-3.23,3.93-2.26,1.56-4.54,3.12-6.72,4.79a16.78,16.78,0,0,0-2.16,2.8,22.07,22.07,0,0,0,3.65.83c6.11.21,11.88,1.88,17.61,3.83,1.3.44,2.64.8,4,1.14a5.63,5.63,0,0,0,4.64-.73c4.66-2.85,10-3,15.26-3.39.41,0,.85.37,1.75.79-3.14,3.37-7.8,4-10.57,7.23.14,2.1,1.9,2.11,3.24,2.58,4.25,1.5,8.66,2.66,12.75,4.52,5,2.28,9.77,5.12,14.62,7.75.39.22.63.72,1.23,1.44-1.36.89-2.53,1.74-3.78,2.44-10,5.66-20.33,10.87-30,17-12.17,7.72-24,16-34.17,26.41-4.8,4.93-10,9.48-14.55,14.67a167.78,167.78,0,0,0-19.55,26.67c-.5.87-1.06,1.71-1.5,2.61-2.59,5.29-5.44,10.48-7.62,15.93-1.72,4.27-2.68,8.86-3.83,13.34-.9,3.51-1.6,7.08-2.37,10.63-.55,2.54-1.06,5.09-1.61,7.71,1.05.9,2,.13,3-.39,8.41-4.48,16.79-9,25.24-13.43,2.68-1.4,4.27-3.13,4.4-6.36.16-4,.77-8,1.27-12a23.61,23.61,0,0,1,.87-3.28c2.68.69,3.33,2.64,4,4.5,1.25,3.66,2.36,7.37,3.53,11,3.7-.43,22.07-10.4,28.85-15.65-1-3.84.5-7.49,1.65-11.13,1.48-4.67,3.33-9.21,5-13.81.39-1.06.71-2.21,2.52-2,1.46,2.87.35,6,.54,9s.31,6.19.5,10.09c1.71-1.09,2.73-1.69,3.7-2.37,5.86-4.1,11.67-8.27,17.6-12.27,1.14-.77,3-1.59,4-1.16,1.72.71,1,2.8,1,4.4,0,12.56-.46,25.14.13,37.66a306.78,306.78,0,0,0,3.47,30.62,190.67,190.67,0,0,0,4.38,20.58c1.55,5.92,4.55,11.29,7.7,17.59,1.18-3.16,2.09-5.42,2.87-7.72,3-8.8,6-17.59,8.8-26.45a9.62,9.62,0,0,0,.05-4.71c-.69-3.18-1.8-6.26-2.54-9.42a5.2,5.2,0,0,1,1.25-5c3.27,1.13,3.49,4.87,6.37,6.86a36.28,36.28,0,0,0,2.26-3.57c3.12-6.43,6.18-12.9,9.24-19.36,1.72-3.63,3.44-7.25,5-10.93a5.5,5.5,0,0,0,.58-3.25c-.22-.87-1.4-1.48-2.1-2.26a10.43,10.43,0,0,1-1.57-2.08c-1.41-2.88-2.74-5.81-4.21-9,2.23-.7,3.43.37,4.71,1,1.13.55,2.14,1.32,3.26,1.9,2.07,1.07,2.74.78,3.64-1.44,2-4.88,4-9.75,6-14.65,2.36-5.94,4.61-11.93,7-17.87.28-.7,1.07-1.2,1.62-1.79.67.66,1.67,1.21,2,2,1.58,4.5,3,9,4.45,13.6,3.08,10.08,5.91,20.24,9.24,30.24a100.54,100.54,0,0,1,3.77,12.72c1.75,9.08,4,18.06,6.07,27.08a8.55,8.55,0,0,0,.56,1.8c2.63,5.53,2.44,11.69,4,17.44,1.46,5.47,2.09,11,3.23,16.52,1.67,8.08,3.45,16.15,4.91,24.27,1.69,9.39,3.68,18.74,4.83,28.19A194.06,194.06,0,0,0,594,867.25c.54,2.4.15,5,.48,7.46a49.33,49.33,0,0,0,1.45,5.81,6.69,6.69,0,0,1,.53,2.54c-.79,4,.65,7.64,1.46,11.4a11.22,11.22,0,0,1,.25,2.24c.07,9.59,2,19,3.28,28.41.9,6.7,1.06,13.5,1.53,20.26.11,1.5.18,3,.28,4.84l-.69.53c6.22-2.69,23.17-10,34.63-14.41Z"/><path class="cls-4" d="M962.32,920.76l-1.58-2c-20.11-25.6-61.08-37-91.62-43.1-96.19-19.24-181.76,25.41-265,66.82-24.69,12.29-50.17,20.09-76.63,27.43,46.08,30.54,96.53,53.09,149.28,57.22,93.17,7.31,157.44-9.73,225-53.46a403.56,403.56,0,0,0,39.22-29c6.59-5.5,13.47-11.05,19.46-17.22C964,923.91,964.25,923.3,962.32,920.76Z"/><path class="cls-5" d="M447.51,498.22s.87-1.34,2.66-3.62"/><path class="cls-6" d="M456.06,487.79c21.06-22.46,82.62-70.74,201.56-37.07,78.85,22.31,149.22-1.41,172.64-11"/><path class="cls-5" d="M834.41,438c2.67-1.17,4.09-1.88,4.09-1.88"/><text class="cls-7" transform="translate(367.31 987.15) rotate(44.98)">S</text><text class="cls-7" transform="matrix(0.84, 0.54, -0.54, 0.84, 433.5, 1051.06)">K</text><text class="cls-7" transform="translate(516.53 1101.99) rotate(20.6)">Y</text><text class="cls-8" transform="matrix(0.99, 0.14, -0.14, 0.99, 608.12, 1133.99)">&amp;</text><text class="cls-8" transform="translate(702.65 1145.29) rotate(-3.3)">S</text><text class="cls-8" transform="translate(791.27 1138.72) rotate(-15.39)">A</text><text class="cls-8" transform="matrix(0.87, -0.49, 0.49, 0.87, 889.56, 1109.51)">N</text><text class="cls-8" transform="translate(986.04 1052.84) rotate(-43.32)">D</text></g></g></svg>