<svg xmlns="http://www.w3.org/2000/svg" xmlns:xlink="http://www.w3.org/1999/xlink" viewBox="0 0 555 555"><defs><style>.cls-1{fill:#fff;}.cls-2{fill:url(#linear-gradient);}.cls-3,.cls-5,.cls-6{fill:none;}.cls-4{fill:#4c4c4c;}.cls-5,.cls-6{stroke:#000;stroke-miterlimit:10;stroke-width:3px;}.cls-6{stroke-dasharray:8.71 8.71;}.cls-7,.cls-8{font-size:60.48px;}.cls-7{font-family:Montserrat-ExtraBold, Montserrat;font-weight:800;}.cls-8{font-family:Montserrat-Medium, Montserrat;font-weight:500;}</style><linearGradient id="linear-gradient" x1="176.32" y1="31.29" x2="319.37" y2="368.28" gradientUnits="userSpaceOnUse"><stop offset="0.42" stop-color="#959595"/><stop offset="0.52" stop-color="#a4a4a4" stop-opacity="0.86"/><stop offset="0.74" stop-color="#cbcbcb" stop-opacity="0.49"/><stop offset="1" stop-color="#fff" stop-opacity="0"/></linearGradient></defs><g id="Layer_2" data-name="Layer 2"><g id="Layer_1-2" data-name="Layer 1"><circle class="cls-1" cx="277.5" cy="277.5" r="277.5"/><circle class="cls-2" cx="278.5" cy="272" r="183"/><path d="M378.92,126.08c-4.23.91-8.24,1.74-12.22,2.68-.43.1-.86.83-1,1.36-.66,2.3-1.3,4.61-1.81,6.95-.38,1.76-1.7,2.22-3.13,2.37-.45.05-1.25-.62-1.42-1.12q-3.61-10.78-7.05-21.64a2.32,2.32,0,0,1,.47-2.07c1.06-.73,2.37-1.28,3.63-.24,1.94,1.6,3.88,3.18,5.77,4.84a1.76,1.76,0,0,0,2.25.26c3.49-1.68,7-3.24,10.73-4.92-.61-.67-1.16-1.3-1.74-1.9q-6-6.11-12-12.2c-1.42-1.45-1.22-1.88.65-2.73a8.26,8.26,0,0,1,8.06.47c6.09,3.38,12.39,6.35,18.55,9.6a6.11,6.11,0,0,0,5.34.46,110.84,110.84,0,0,1,12.43-3.72,10.92,10.92,0,0,1,5.65.62c3,1,3.74,3.52,2.1,6.31a11.26,11.26,0,0,1-6.33,4.94c-3.29,1.13-6.6,2.23-9.93,3.23a6.33,6.33,0,0,0-4.13,3.5c-3.42,6.9-7.08,13.68-10.39,20.64-1.42,3-4.17,3.08-6.63,3.83-1,.31-.94-.84-.84-1.58.62-4.23,1.26-8.46,1.89-12.69C378.18,131,378.53,128.72,378.92,126.08Z"/><path class="cls-3" d="M282.5,401l-25.41,6.15s.39,4.75-5.54,7.15a16.13,16.13,0,0,0,1.88-.77c1-.53,2-1.22,3-1.83a6,6,0,0,1,.94-.61c3.1-1.21,6.21-2.38,9.3-3.59,5.24-2.05,10.58-3.82,16-5.4a1.51,1.51,0,0,0,1.08-.87C282.07,401.39,282.5,401,282.5,401Z"/><path class="cls-3" d="M281.38,340.68a26.06,26.06,0,0,1,7.23-4.49,4.26,4.26,0,0,0,2.15-1.58c-2.6-1.21-5.47-.61-8.32-1.75l1.91-.63a1.23,1.23,0,0,0-1.73-.67c-1.33.43-2.62,1-3.93,1.47-.65.25-.69.72-.55,1.31q.58,2.6,1.13,5.21c.14.67.24,1.35.35,2C280.43,341.74,280.92,341.12,281.38,340.68Z"/><path d="M279.62,341.58h0v0l.06,0Z"/><path d="M235,404.2a22.91,22.91,0,0,1-4.88,1.09c-.1-.56-.25-1.13-.32-1.71-.44-3.75-.78-7.52-1.31-11.25-.87-6.12-1.84-12.23-2.8-18.33-.93-5.83-1.81-11.67-2.89-17.48s-2.32-11.71-3.68-17.52c-2.18-9.3-4.37-18.6-6.82-27.83a280.63,280.63,0,0,0-8.76-27.06c-2.76-7.33-5.43-14.68-9.46-21.45a1.17,1.17,0,0,1-.25-.56c0-.38,0-.89.2-1.11a1.2,1.2,0,0,1,1.1-.16,18.89,18.89,0,0,1,2.63,1.58c1.11.79,2.14,1.7,3.25,2.49.79.56,1.69.94,2.45,1.53,3.15,2.44,6.26,4.93,9.38,7.41,1.61,1.28,3.21,2.56,4.78,3.89s3,2.67,4.47,4c.34.28,1,.64,1.2.51a2.51,2.51,0,0,0,.72-1.32,4.17,4.17,0,0,0,.06-1.23c0-1.78,0-3.57,0-5.36,0-.74-.05-1.53,1-2A12.66,12.66,0,0,1,227,274.4c1.7,3.05,3.28,6.18,4.93,9.26.45.84.8,1.93,1.52,2.39,2.36,1.48,4.86,2.73,7.32,4.06.07,0,.24-.08.46-.16.81-3.14-.7-6.4-.11-9.54a1.62,1.62,0,0,1,2,1.12c.48,1,1,2,1.39,3,1.29,3.18,2.49,6.4,3.8,9.58.87,2.08.88,2.22-.78,3.61-.53.45-1.41.67-1.26,1.8a5.34,5.34,0,0,0,1.11.29c2.75.12,5.5.23,8.25.31a3.67,3.67,0,0,1,2.65.89c3.47,3.31,7.59,5.88,10.85,9.45a5.77,5.77,0,0,0,1.67.95v0h.05c-.15-.86-.27-1.73-.45-2.59q-.69-3.33-1.45-6.64c-.17-.76-.12-1.36.71-1.68,1.67-.63,3.32-1.33,5-1.87.8-.26,1.74-.32,2.21.85l-2.44.81c3.64,1.45,7.31.69,10.62,2.23a5.37,5.37,0,0,1-2.74,2,33.17,33.17,0,0,0-9.22,5.74c-.59.55-1.21,1.35-2.25,1.14v.05l-.07,0c-.55.84-1.05,1.72-1.67,2.5s-1.2,1.13-1.74,1.75a33.81,33.81,0,0,0-4.64,6c-.93,1.71-2.43,3.11-3.35,4.83-1.83,3.45-3.47,7-5.12,10.55a26.58,26.58,0,0,0-1.77,6.82,5.46,5.46,0,0,0,2.25-1.78,29.33,29.33,0,0,1,8.47-6.81,4.1,4.1,0,0,0,2.13-2.58c.49-1.57,1.07-3.11,1.66-4.66.23-.62.44-1.32,1.43-1.35,1,1.55.2,3.32.53,5.06,2.5-.81,4.54-1.89,5.44-4.57a19.6,19.6,0,0,1,2.12-4c.23-.38.78-.56,1.35-.94.86,1.79.18,3.49.59,5.28a16.63,16.63,0,0,0,1.51-.95c3.8-3.06,7.59-6.12,11.36-9.22a6.32,6.32,0,0,1,3.63-1.46,6.58,6.58,0,0,1-.28,1.34c-.83,1.8-1.74,3.56-2.55,5.36s-1.52,3.48-2.16,5.27c-.5,1.41-.7,2.94-1.25,4.33-2.48,6.2-4,12.68-5.75,19.11-.63,2.38-1.2,4.78-1.8,7.17-.05.2-.2.39-.19.58.15,2.18-.79,4.15-1.18,6.22-.66,3.5-1.21,7-1.81,10.53-.25,1.42-.55,2.83-.77,4.26-.35,2.3-.64,4.61-1,6.91a3.05,3.05,0,0,1-.16.58,84,84,0,0,0,10.36-2.09l.38-.1c-.25.07-.51.13-.77.18-.64.12-1.29.18-2.12.28a16.69,16.69,0,0,1,0-2.26c1-7.06,2-14.13,3.17-21.18.54-3.39,1.24-6.75,1.95-10.1,1.21-5.64,2.38-11.29,3.76-16.89s3-11.14,4.51-16.7a8.65,8.65,0,0,1,.65-1.74,1,1,0,0,1,1.93-.05,10.89,10.89,0,0,1,.75,1.9c.68,1.8,1.38,3.58,2,5.39a2.67,2.67,0,0,0,2.91,2.09,4.35,4.35,0,0,1,1.05.26,19.52,19.52,0,0,1-.65,1.92,4.8,4.8,0,0,0,0,4.69c1.2,2.22,2.15,4.59,3.2,6.88h2.36c0,2.47-.67,4.94.4,7.3,1,2.21,1.84,4.5,2.91,7.15.46-.91.78-1.48,1-2.07a39.29,39.29,0,0,0,2.4-8.93,96.29,96.29,0,0,0,1.2-17.87,22.62,22.62,0,0,1,0-2.47c.12-1,.6-1.32,1.58-1,1.44.47,2.84,1,4.26,1.55.5.18,1,.3,1.5.44.48-.83.86-1.51,1.42-2.5a7.64,7.64,0,0,1,1.05,1.55c.49,1.57,1,3.16,1.31,4.76a2.17,2.17,0,0,0,1.47,1.78c.82.33,1.54.89,2.34,1.29.58.3,1.22.5,1.82.79a3.74,3.74,0,0,1,1,.63c1,.94,1.49.84,2-.47.35-.82.65-1.66,1-2.47.06-.16.31-.24.71-.53a13.9,13.9,0,0,1,.91,2c.22.78.23,1.63.41,2.43.1.45.25,1.05.57,1.25,1.56,1,2.93,2.36,4.91,2.43a1.88,1.88,0,0,1,1.77,1.16,1.6,1.6,0,0,0,1.07.78,1.18,1.18,0,0,0,1-.67,4.13,4.13,0,0,0-.2-1.61c-2.42-10.27-8-18.53-15.87-25.46A87,87,0,0,0,320,300.5c-1-.53-2-.92-3-1.44a11.72,11.72,0,0,1-1.54-1.24,52.07,52.07,0,0,1,10.25-4.37c-1.26-.8-2.68-1-2.88-2.57.86-.76,1.82-.23,2.69-.08a23,23,0,0,1,2.33.81,3.21,3.21,0,0,0,1.58.16c2.16-.56,4.3-1.22,6.48-1.85-.72-1.27-2.54-1.54-3.62-3.25a11.33,11.33,0,0,1,6.67,1.24,3.53,3.53,0,0,0,3.12.38,55.83,55.83,0,0,1,12.22-2.8,6.73,6.73,0,0,0,1.18-.36,24.27,24.27,0,0,0-6.25-3.78c-8.16-3.8-16.53-3.38-25-1.19a42.69,42.69,0,0,0-13.83,6.71,41.93,41.93,0,0,0-4.27,3.85c-.44.41-.82.88-1.3,1.39-1.72-.94-1.13-3.91-3.9-3.82l-2.25,3.14c-1.12,0-1.33-.83-1.58-1.6a35.47,35.47,0,0,0-9.66-14.71,25.11,25.11,0,0,0-16.76-7c-.84,0-1.81-.27-2.51.93.61.52,1.23,1,1.8,1.54,3.25,3.06,6.48,6.16,9.76,9.19a20.76,20.76,0,0,0,2.68,1.83c.89.58,2.09.83,1.9,2.35-.05.36.45.8.72,1.2,1.77,2.6,3.57,5.19,5.3,7.83a4.75,4.75,0,0,1,.33,1.65c-1.29.41-1.95-.3-2.66-.78a37.24,37.24,0,0,0-4.44-3,28.85,28.85,0,0,0-17.92-2.13c-1.82.34-1.9.29-2.7-1.34a117.09,117.09,0,0,0-8.93-15,143.84,143.84,0,0,0-12.51-15.32,69.4,69.4,0,0,0-17.26-13.91c-3.34-1.86-6.71-3.78-10.5-4.71a23.15,23.15,0,0,1-2.92-1.15c.53-1.12,1.43-1.11,2.18-1.21,5.92-.76,11.74-2.37,17.76-2.36a7.42,7.42,0,0,0,1.4-.3,6.44,6.44,0,0,0-3.85-2.47,8.68,8.68,0,0,1-1.79-.44,1.17,1.17,0,0,1-.49-1,1.11,1.11,0,0,1,.81-.7,6.47,6.47,0,0,1,2.23.3c2.83,1,5.64,2.13,8.47,3.17a4.38,4.38,0,0,0,1.6.27c1.86,0,3.72-.08,5.57-.14l8.85-.28c.73,0,1.46-.09,2.53-.15a7.87,7.87,0,0,0-.87-1.38c-.49-.48-1.11-.82-1.61-1.28s-1.3-.91-.75-1.65c.22-.29,1.16-.3,1.64-.1,2.86,1.17,5.66,2.48,8.52,3.65a9.06,9.06,0,0,0,3.35.82c4.12,0,8.25-.15,12.37-.41a31.47,31.47,0,0,0,4.93-1.16c-1-1-1.57-1.72-2.28-2.32-8.68-7.26-18.2-12.93-29.17-16.13A58.73,58.73,0,0,0,230.83,210a36.55,36.55,0,0,0-14.47,4.15c-2.78,1.49-5.65,2.81-8.41,4.31a26.51,26.51,0,0,0-2.76,2.14c-1,.72-1.88,1.63-3.35,1.39a4.28,4.28,0,0,1,.84-3.13q3.1-5.46,6.37-10.84a14.51,14.51,0,0,1,2.07-2.56c1.15-1.19,2.36-2.28,2.7-4a2.05,2.05,0,0,1,1-1.2c4.66-2.34,7.89-6.37,11.66-9.76q8.27-7.44,16.49-15a15.31,15.31,0,0,0,1.46-1.77,10.34,10.34,0,0,0-4.86-.73,48.25,48.25,0,0,0-14.6,2.33,34.26,34.26,0,0,0-6,2.63,85.49,85.49,0,0,0-7.76,4.64,36.44,36.44,0,0,0-8.71,7.82c-2.16,2.83-4.41,5.55-6.36,8.58a74.54,74.54,0,0,0-7.48,15,19.91,19.91,0,0,1-1.55,2.72,8,8,0,0,1-.82-1.5,7.86,7.86,0,0,0-2.69-4.27c-2.61-2.39-5.28-.78-6.11,1.52-.4,1.09-.61,2.25-.93,3.37-.16.55-.37,1.07-.69,2-1.18-1.71-2.07-3.07-3-4.38a14.38,14.38,0,0,0-1.93-2.12,71.48,71.48,0,0,0-16.65-11,83.76,83.76,0,0,0-17.62-6.3,101.91,101.91,0,0,0-17.75-2.27,12.89,12.89,0,0,0-2,.17,27,27,0,0,1-3.86.48c-3.72-.09-7.17,1.08-10.67,2-2.29.63-4.53,1.47-6.76,2.29a17.74,17.74,0,0,0-2.92,1.47c-2.23,1.34-4.43,2.73-6.62,4.13-.84.54-1.62,1.17-2.71,2a8.11,8.11,0,0,0,1.59.72c7.12.91,14,3,20.82,5,.92.27,1.83.6,2.75.85,1.46.41,2.69-.08,4.11-.58,3.59-1.28,7.36-2.06,11.07-3,.21-.05.48.16.79.28-.1,1.2-1,1.62-1.77,2.15-1.24.86-2.48,1.71-3.68,2.62a9.81,9.81,0,0,0-1.18,1.53,12.42,12.42,0,0,0,2,.46,33.13,33.13,0,0,1,9.64,2.1c.71.24,1.44.44,2.18.62a3.09,3.09,0,0,0,2.54-.4c2.55-1.56,5.48-1.64,8.35-1.85.22,0,.47.2,1,.43-1.72,1.84-4.27,2.18-5.79,4,.08,1.14,1,1.15,1.78,1.41,2.32.82,4.74,1.45,7,2.47,2.74,1.25,5.34,2.8,8,4.24.21.12.34.4.67.79-.75.49-1.38.95-2.07,1.34-5.48,3.09-11.12,5.94-16.44,9.31-6.66,4.23-13.15,8.75-18.7,14.45-2.63,2.71-5.5,5.2-8,8A91.41,91.41,0,0,0,99.25,276c-.27.47-.58.93-.82,1.42-1.42,2.9-3,5.74-4.17,8.72a60.41,60.41,0,0,0-2.1,7.3c-.49,1.93-.87,3.88-1.29,5.82-.3,1.39-.58,2.79-.88,4.22.57.49,1.1.07,1.63-.21,4.61-2.45,9.19-4.94,13.82-7.35a3.79,3.79,0,0,0,2.41-3.48c.08-2.19.42-4.38.69-6.56A14.46,14.46,0,0,1,109,284c1.47.37,1.83,1.44,2.17,2.46.69,2,1.3,4,1.93,6,2-.23,12.09-5.69,15.8-8.56-.56-2.1.27-4.1.9-6.09.81-2.56,1.82-5.05,2.75-7.56.22-.58.39-1.21,1.38-1.11.8,1.57.19,3.29.3,4.94s.17,3.39.27,5.53c.94-.6,1.5-.93,2-1.3,3.2-2.24,6.39-4.52,9.63-6.71a2.94,2.94,0,0,1,2.2-.64c.95.39.56,1.53.55,2.41,0,6.87-.25,13.76.07,20.61.27,5.61,1.08,11.2,1.9,16.76a106.57,106.57,0,0,0,2.4,11.27c.85,3.23,2.49,6.17,4.21,9.62.65-1.73,1.15-3,1.58-4.22,1.63-4.82,3.27-9.63,4.81-14.48a5.24,5.24,0,0,0,0-2.58c-.38-1.74-1-3.42-1.39-5.16a2.86,2.86,0,0,1,.68-2.71c1.79.62,1.92,2.66,3.49,3.76a21.45,21.45,0,0,0,1.24-2c1.7-3.52,3.38-7.06,5.06-10.59.94-2,1.88-4,2.76-6a3,3,0,0,0,.32-1.77c-.13-.48-.77-.82-1.15-1.24a5.51,5.51,0,0,1-.86-1.14c-.78-1.58-1.5-3.18-2.31-4.9a3,3,0,0,1,2.58.54c.62.3,1.17.72,1.78,1,1.14.59,1.5.43,2-.79,1.09-2.67,2.2-5.33,3.26-8,1.29-3.26,2.52-6.53,3.83-9.78.15-.39.58-.66.88-1,.37.36.92.65,1.07,1.09.87,2.46,1.67,5,2.44,7.44,1.68,5.52,3.23,11.08,5.05,16.55a55.67,55.67,0,0,1,2.07,7c1,5,2.19,9.89,3.32,14.83a4.66,4.66,0,0,0,.31,1c1.43,3,1.33,6.4,2.17,9.55.81,3,1.15,6,1.77,9,.92,4.43,1.89,8.84,2.69,13.29.92,5.13,2,10.25,2.64,15.42.44,3.55.77,7.09,1.56,10.58.3,1.32.09,2.74.26,4.09a27.91,27.91,0,0,0,.8,3.18,3.77,3.77,0,0,1,.29,1.39c-.43,2.18.35,4.18.8,6.24a6.24,6.24,0,0,1,.13,1.22c0,5.25,1.1,10.38,1.8,15.55.49,3.67.58,7.39.84,11.09.06.82.1,1.64.15,2.65l-.38.29c3.41-1.47,12.69-5.45,19-7.89Z"/><path class="cls-4" d="M412.77,395.78c-.23-.31-.52-.66-.86-1.1-11-14-33.43-20.25-50.15-23.59-52.65-10.53-99.48,13.91-145,36.58-13.52,6.72-27.46,11-41.94,15C200,439.4,227.63,451.74,256.5,454c51,4,86.18-5.33,123.17-29.26a221.75,221.75,0,0,0,21.47-15.86,138.22,138.22,0,0,0,10.65-9.43C413.68,397.5,413.83,397.16,412.77,395.78Z"/><path class="cls-5" d="M131,164.5a39.09,39.09,0,0,1,2.75-3.56"/><path class="cls-6" d="M139.83,154.72c14.46-13.07,47.6-32.8,106.17-16.22,39.62,11.21,75.34,1.19,90.84-4.59"/><path class="cls-5" d="M340.89,132.32c2.67-1.1,4.11-1.82,4.11-1.82"/><text class="cls-7" transform="matrix(0.71, 0.7, -0.7, 0.71, 87.58, 432.67)">S</text><text class="cls-7" transform="translate(123.88 467.52) rotate(32.44)">K</text><text class="cls-7" transform="translate(169.35 495.24) rotate(20.45)">Y</text><text class="cls-8" transform="matrix(0.99, 0.14, -0.14, 0.99, 219.47, 512.61)">&amp;</text><text class="cls-8" transform="matrix(1, -0.06, 0.06, 1, 271.19, 518.68)">S</text><text class="cls-8" transform="translate(319.62 514.98) rotate(-15.5)">A</text><text class="cls-8" transform="translate(373.34 498.92) rotate(-29.15)">N</text><text class="cls-8" transform="translate(426.03 467.85) rotate(-43.4)">D</text></g></g></svg>