<svg xmlns="http://www.w3.org/2000/svg" xmlns:xlink="http://www.w3.org/1999/xlink" viewBox="0 0 1417 1417"><defs><style>.cls-1{fill:#fff;}.cls-2{fill:url(#linear-gradient);}.cls-3,.cls-5,.cls-6{fill:none;}.cls-4{fill:#edae2f;}.cls-5,.cls-6{stroke:#000;stroke-miterlimit:10;stroke-width:3px;}.cls-6{stroke-dasharray:8.74 8.74;}</style><linearGradient id="linear-gradient" x1="370.33" y1="545.19" x2="480.74" y2="805.32" gradientUnits="userSpaceOnUse"><stop offset="0.42" stop-color="#01ccfe"/><stop offset="0.48" stop-color="#16d0fe" stop-opacity="0.92"/><stop offset="0.62" stop-color="#4ddbfe" stop-opacity="0.7"/><stop offset="0.81" stop-color="#a4edff" stop-opacity="0.36"/><stop offset="1" stop-color="#fff" stop-opacity="0"/></linearGradient></defs><g id="Layer_2" data-name="Layer 2"><g id="Layer_1-2" data-name="Layer 1"><rect class="cls-1" width="1417" height="1417"/><path d="M716.33,655.74A47.55,47.55,0,0,0,705,650.48q-6.21-2-12.42-3.28t-11.39-2.56a28,28,0,0,1-8.32-3.21,6,6,0,0,1-3.14-5.33,7.35,7.35,0,0,1,1.6-4.67,11,11,0,0,1,5.26-3.29,30.62,30.62,0,0,1,9.64-1.24,52.28,52.28,0,0,1,13.87,2,68.86,68.86,0,0,1,14.46,5.91l8.91-21.47a63.11,63.11,0,0,0-17.3-6.64,86.93,86.93,0,0,0-19.79-2.26q-15,0-25.12,4.52t-15.12,12a29.06,29.06,0,0,0-5,16.65q0,8.18,3.21,13.51a26.22,26.22,0,0,0,8.33,8.62A49.74,49.74,0,0,0,664,665a119,119,0,0,0,12.41,3.36q6.21,1.3,11.32,2.62a29.32,29.32,0,0,1,8.33,3.36,6.31,6.31,0,0,1,3.21,5.55,6.14,6.14,0,0,1-1.68,4.31,11.68,11.68,0,0,1-5.33,2.92,34.56,34.56,0,0,1-9.64,1.1,58.88,58.88,0,0,1-17.89-2.85,67,67,0,0,1-15.85-7.23l-9.49,21.32q7.3,5,18.91,8.11a92.33,92.33,0,0,0,24.17,3.14q15.19,0,25.2-4.53t15-12.05a28.9,28.9,0,0,0,5-16.43q0-8-3.14-13.36A25.6,25.6,0,0,0,716.33,655.74Z"/><polygon points="910.8 606.45 886.5 647.02 862.31 606.45 838.5 606.45 831.79 606.45 806.66 606.45 767.09 648.92 767.09 606.45 738.46 606.45 738.46 708.69 767.09 708.69 767.09 683.07 777.82 671.57 807.1 708.69 840.7 708.69 796.76 651.67 834.43 610.87 870.78 671.61 870.78 708.69 899.7 708.69 899.7 672.06 938.84 606.45 910.8 606.45"/><path d="M870,733.37,823.73,835.6h15L850,810h54.36l11.23,25.56h15.34L884.48,733.37Zm-14.88,65,22-50.17,22.05,50.17Z"/><polygon points="1019.43 809.55 958.09 733.37 946.12 733.37 946.12 835.6 960.72 835.6 960.72 759.42 1022.06 835.6 1034.04 835.6 1034.04 733.37 1019.43 733.37 1019.43 809.55"/><path d="M1156.06,757.76a47.52,47.52,0,0,0-19.42-18q-12.5-6.42-28.85-6.42h-43.08V835.6h43.08q16.37,0,28.85-6.42a47.52,47.52,0,0,0,19.42-18q6.95-11.54,6.94-26.73T1156.06,757.76Zm-12.78,46.81a35.13,35.13,0,0,1-14.38,13.51q-9.29,4.81-22,4.82h-27.61V746.07h27.61q12.7,0,22,4.82a35.29,35.29,0,0,1,14.38,13.44,42.16,42.16,0,0,1,0,40.24Z"/><path d="M726,790.72l-11-3.63a64.33,64.33,0,0,1-1.94,8.1L690.14,782.1c-1.58-.91-3.17-1.82-4.74-2.75a90.52,90.52,0,0,0,7.76-5.09,32.77,32.77,0,0,0,9.13-9.64,21.33,21.33,0,0,0,2.85-10.81,19.34,19.34,0,0,0-12-18.76,32.52,32.52,0,0,0-13.44-2.56,34.56,34.56,0,0,0-14.53,2.85,22.52,22.52,0,0,0-9.64,8,21.31,21.31,0,0,0-3.43,12,23.65,23.65,0,0,0,1.31,7.74c.08.23.17.45.25.68,2.26,6,6.39,10.62,11.23,14.6-2.63,1.43-5.24,2.91-7.75,4.54-9.11,5.95-17.38,15.06-17.66,25.94-.2,8,4.12,15.67,10.41,20.57s14.33,7.2,22.29,7.54c1,.05,2.1.06,3.15,0a52.49,52.49,0,0,0,32.9-12.55,51.82,51.82,0,0,0,10.41-12.36l7.51,4.55L733,806.62l-9.29-5.32A51.08,51.08,0,0,0,726,790.72Zm-54.86-22.37a23.06,23.06,0,0,1-5.45-9.32,13.19,13.19,0,0,1,1.33-10.5c2.6-4,7.61-5.81,12.36-5.89,5.81-.11,12.3,2.8,13.79,8.41,1.57,5.91-3,11.68-7.81,15.42a78,78,0,0,1-9.64,6.22A42.68,42.68,0,0,1,671.09,768.35Zm22.8,52.5a36.69,36.69,0,0,1-17.67,4.24A32.57,32.57,0,0,1,664.17,823a18.21,18.21,0,0,1-8-5.77,13.67,13.67,0,0,1-2.85-8.54,16.76,16.76,0,0,1,2.12-8.33,26.66,26.66,0,0,1,7.08-7.66,83.88,83.88,0,0,1,12-7.51c2.42,1.54,4.86,3,7.18,4.49,8.8,5.57,17.78,10.88,26.71,16.24A37.05,37.05,0,0,1,693.89,820.85Z"/><path d="M805.69,786.38a56.35,56.35,0,0,0-12.12-5q-6.65-1.9-13.22-3.44a118.74,118.74,0,0,1-12.05-3.43,24.62,24.62,0,0,1-8.91-5.11,11.22,11.22,0,0,1-3.43-8.62,13.87,13.87,0,0,1,2.56-8.17,17.2,17.2,0,0,1,8.1-5.85q5.55-2.19,14.17-2.19a54.45,54.45,0,0,1,14.17,2,47.21,47.21,0,0,1,13.87,6.36l4.82-11.69a49.08,49.08,0,0,0-15.19-6.71,68.19,68.19,0,0,0-17.67-2.34q-13.44,0-22.13,4t-12.85,10.66a26.88,26.88,0,0,0-4.16,14.53q0,8.18,3.36,13.36a24.71,24.71,0,0,0,8.83,8.25,58.59,58.59,0,0,0,12.12,5q6.64,2,13.22,3.43a99.23,99.23,0,0,1,12.05,3.44,25.46,25.46,0,0,1,8.91,5.18,11.05,11.05,0,0,1,3.43,8.47,13.32,13.32,0,0,1-2.63,8.11,17.1,17.1,0,0,1-8.17,5.62q-5.57,2.06-14.46,2.05A53.67,53.67,0,0,1,759.47,821a65.4,65.4,0,0,1-7.71-3.46c-2-1.06-4-2.18-6-3.36l-6.55,9.75-.27.4,1.86,1A48.22,48.22,0,0,0,756,833.19a69.67,69.67,0,0,0,22.35,3.58q13.43,0,22.27-4t13.07-10.66a26.28,26.28,0,0,0,4.24-14.38q0-8-3.36-13.15A25.18,25.18,0,0,0,805.69,786.38Z"/><circle class="cls-2" cx="449.2" cy="731" r="141.26"/><path d="M526.72,618.36c-3.27.7-6.37,1.34-9.44,2.07-.33.08-.66.65-.78,1.05-.51,1.77-1,3.56-1.39,5.36a2.36,2.36,0,0,1-2.42,1.84,1.49,1.49,0,0,1-1.1-.87q-2.79-8.32-5.44-16.71a1.76,1.76,0,0,1,.36-1.59c.82-.56,1.83-1,2.8-.19,1.5,1.24,3,2.46,4.46,3.74a1.36,1.36,0,0,0,1.74.2c2.69-1.3,5.43-2.5,8.28-3.8-.47-.52-.89-1-1.34-1.46l-9.25-9.42c-1.09-1.12-.94-1.45.51-2.11a6.37,6.37,0,0,1,6.22.36c4.7,2.61,9.56,4.91,14.31,7.41a4.76,4.76,0,0,0,4.13.36,87.3,87.3,0,0,1,9.59-2.88,8.42,8.42,0,0,1,4.36.49c2.35.81,2.89,2.71,1.62,4.87a8.67,8.67,0,0,1-4.88,3.81c-2.54.87-5.09,1.72-7.66,2.49a4.87,4.87,0,0,0-3.19,2.7c-2.64,5.33-5.47,10.57-8,15.94-1.1,2.31-3.22,2.38-5.12,3-.8.24-.73-.65-.65-1.21.48-3.27,1-6.53,1.46-9.8C526.14,622.18,526.41,620.4,526.72,618.36Z"/><path class="cls-3" d="M452.29,830.58l-19.62,4.74s.3,3.67-4.28,5.52a12.37,12.37,0,0,0,1.46-.59c.8-.41,1.54-.94,2.31-1.42a5.22,5.22,0,0,1,.73-.46c2.39-.94,4.79-1.84,7.18-2.78,4-1.58,8.16-3,12.33-4.16a1.18,1.18,0,0,0,.83-.67C452,830.88,452.29,830.58,452.29,830.58Z"/><path class="cls-3" d="M451.42,784a19.84,19.84,0,0,1,5.58-3.47,3.32,3.32,0,0,0,1.66-1.22c-2-.93-4.22-.47-6.42-1.35l1.47-.49a.94.94,0,0,0-1.33-.51c-1,.33-2,.75-3,1.13-.51.19-.54.56-.43,1q.45,2,.87,4c.11.52.18,1,.27,1.57C450.69,784.83,451.07,784.35,451.42,784Z"/><path d="M450.06,784.71h0v0l0,0Z"/><path d="M415.65,833.05a18.13,18.13,0,0,1-3.76.84c-.09-.43-.2-.87-.25-1.32-.34-2.9-.6-5.8-1-8.69-.68-4.72-1.42-9.43-2.17-14.14-.71-4.51-1.39-9-2.23-13.5s-1.79-9-2.84-13.52c-1.68-7.18-3.37-14.36-5.26-21.48a219.15,219.15,0,0,0-6.76-20.89c-2.14-5.66-4.2-11.34-7.31-16.56a1,1,0,0,1-.19-.43c0-.3,0-.69.16-.86a.91.91,0,0,1,.85-.12,14.85,14.85,0,0,1,2,1.22c.86.61,1.66,1.31,2.52,1.92.6.43,1.3.73,1.88,1.18q3.65,2.84,7.24,5.72c1.24,1,2.49,2,3.69,3s2.29,2.05,3.46,3.05c.25.22.78.49.92.39a1.9,1.9,0,0,0,.56-1,3.34,3.34,0,0,0,0-1c0-1.38,0-2.76,0-4.14,0-.57,0-1.18.81-1.53a9.89,9.89,0,0,1,1.44,1.61c1.32,2.36,2.54,4.77,3.81,7.15.35.65.62,1.49,1.17,1.84,1.82,1.15,3.75,2.12,5.65,3.14.06,0,.19-.06.36-.12.63-2.43-.54-5-.08-7.37a1.25,1.25,0,0,1,1.54.87c.38.76.76,1.52,1.08,2.3,1,2.46,1.92,5,2.93,7.4.67,1.61.68,1.71-.6,2.79-.41.34-1.09.51-1,1.38a4.2,4.2,0,0,0,.86.23c2.12.09,4.24.18,6.36.24a2.85,2.85,0,0,1,2.05.68c2.68,2.56,5.86,4.54,8.37,7.3a4.51,4.51,0,0,0,1.29.73v0h0c-.12-.67-.21-1.34-.35-2q-.54-2.56-1.12-5.13c-.13-.58-.09-1,.55-1.29,1.29-.49,2.56-1,3.87-1.45.62-.19,1.34-.24,1.7.66l-1.88.62c2.81,1.13,5.64.53,8.2,1.72a4.15,4.15,0,0,1-2.12,1.56,25.3,25.3,0,0,0-7.12,4.43c-.45.42-.93,1-1.73.88v0l-.05,0c-.42.65-.81,1.33-1.28,1.94s-.93.87-1.35,1.35a26,26,0,0,0-3.58,4.61c-.72,1.32-1.88,2.4-2.59,3.73-1.41,2.66-2.67,5.41-3.95,8.14a20.35,20.35,0,0,0-1.36,5.26,4.12,4.12,0,0,0,1.73-1.37,22.53,22.53,0,0,1,6.53-5.25,3.16,3.16,0,0,0,1.65-2c.38-1.22.83-2.41,1.28-3.6.18-.48.34-1,1.11-1.05.74,1.2.15,2.57.41,3.91,1.92-.62,3.51-1.46,4.19-3.53a16.59,16.59,0,0,1,1.64-3.08c.18-.29.61-.43,1-.72.67,1.38.15,2.69.46,4.07a10.53,10.53,0,0,0,1.16-.73q4.39-3.54,8.77-7.11a4.82,4.82,0,0,1,2.81-1.13,4.91,4.91,0,0,1-.22,1c-.64,1.39-1.34,2.75-2,4.14s-1.17,2.69-1.67,4.07c-.39,1.09-.53,2.27-1,3.34a128.34,128.34,0,0,0-4.44,14.75c-.49,1.84-.92,3.69-1.39,5.53,0,.16-.15.31-.14.46.11,1.68-.61,3.19-.92,4.79-.51,2.7-.93,5.42-1.39,8.13-.19,1.1-.43,2.19-.59,3.29-.28,1.77-.5,3.56-.77,5.33a1.48,1.48,0,0,1-.12.45,62.84,62.84,0,0,0,8-1.61l.3-.08-.6.14c-.5.09-1,.14-1.64.22a14.21,14.21,0,0,1,0-1.75c.8-5.45,1.58-10.91,2.45-16.35.42-2.61.95-5.21,1.51-7.79.93-4.36,1.83-8.72,2.9-13s2.3-8.6,3.48-12.9a5.77,5.77,0,0,1,.5-1.33.8.8,0,0,1,1.49,0,9.1,9.1,0,0,1,.58,1.48c.52,1.38,1.06,2.76,1.55,4.16a2.06,2.06,0,0,0,2.25,1.6,3.53,3.53,0,0,1,.81.21,14.21,14.21,0,0,1-.5,1.48,3.73,3.73,0,0,0,0,3.62c.93,1.72,1.66,3.54,2.47,5.31h1.82c0,1.91-.51,3.81.31,5.64s1.42,3.47,2.25,5.51c.35-.7.6-1.13.8-1.59a30.66,30.66,0,0,0,1.85-6.89,75.05,75.05,0,0,0,.93-13.8,17.39,17.39,0,0,1,0-1.91c.09-.77.47-1,1.22-.77,1.11.36,2.19.8,3.29,1.2.38.13.78.23,1.16.34l1.09-1.94a5.94,5.94,0,0,1,.81,1.2,37.18,37.18,0,0,1,1,3.68,1.7,1.7,0,0,0,1.14,1.37c.63.25,1.19.69,1.8,1,.46.23.95.38,1.41.61a2.72,2.72,0,0,1,.73.48c.77.73,1.16.65,1.59-.36.27-.63.5-1.28.77-1.91.06-.12.25-.18.56-.4a10.88,10.88,0,0,1,.7,1.54c.17.6.18,1.26.32,1.88.07.34.18.81.44,1,1.2.74,2.26,1.82,3.79,1.88a1.43,1.43,0,0,1,1.36.89,1.26,1.26,0,0,0,.83.61.92.92,0,0,0,.74-.53,3.18,3.18,0,0,0-.15-1.24c-1.87-7.93-6.19-14.3-12.25-19.65a67.49,67.49,0,0,0-12-8.29c-.74-.41-1.54-.71-2.29-1.11a11.36,11.36,0,0,1-1.19-1,40,40,0,0,1,7.91-3.37c-1-.62-2.07-.77-2.22-2,.67-.59,1.41-.19,2.08-.07a17.49,17.49,0,0,1,1.8.63,2.46,2.46,0,0,0,1.22.12c1.67-.43,3.31-.94,5-1.43-.56-1-2-1.19-2.8-2.5a8.71,8.71,0,0,1,5.16.95,2.69,2.69,0,0,0,2.4.29,42.5,42.5,0,0,1,9.44-2.15,6.69,6.69,0,0,0,.91-.29,18.66,18.66,0,0,0-4.83-2.91c-6.29-2.94-12.76-2.61-19.29-.92a29,29,0,0,0-14,8.15c-.34.31-.64.68-1,1.08-1.33-.73-.88-3-3-3L464.81,746c-.87,0-1-.64-1.22-1.24a27.5,27.5,0,0,0-7.46-11.35A19.38,19.38,0,0,0,443.19,728c-.65,0-1.4-.21-1.93.72.47.4.94.77,1.38,1.19,2.52,2.36,5,4.75,7.54,7.09a15.71,15.71,0,0,0,2.07,1.41c.68.45,1.61.65,1.46,1.82,0,.28.35.62.56.92,1.37,2,2.76,4,4.09,6.05a3.38,3.38,0,0,1,.25,1.27c-1,.32-1.5-.24-2.05-.6a29.24,29.24,0,0,0-3.43-2.29A22.23,22.23,0,0,0,439.3,744c-1.41.26-1.46.22-2.08-1a91.42,91.42,0,0,0-6.89-11.63,113.13,113.13,0,0,0-9.66-11.82,53.13,53.13,0,0,0-13.33-10.73,33,33,0,0,0-8.1-3.64,17.46,17.46,0,0,1-2.25-.89c.4-.87,1.1-.86,1.68-.93,4.57-.59,9.06-1.83,13.71-1.83a7.06,7.06,0,0,0,1.08-.22,4.94,4.94,0,0,0-3-1.91,6.35,6.35,0,0,1-1.38-.35.89.89,0,0,1-.37-.76.83.83,0,0,1,.62-.54,4.78,4.78,0,0,1,1.72.24c2.19.78,4.35,1.64,6.54,2.44a3.48,3.48,0,0,0,1.24.21c1.43,0,2.86-.06,4.3-.11l6.83-.22c.56,0,1.12-.06,1.95-.11a6,6,0,0,0-.67-1.07c-.38-.36-.86-.63-1.25-1s-1-.71-.57-1.28c.17-.22.9-.23,1.26-.07,2.21.9,4.37,1.91,6.58,2.81a7.2,7.2,0,0,0,2.58.64c3.19,0,6.37-.12,9.55-.32a25.83,25.83,0,0,0,3.81-.89c-.75-.77-1.21-1.34-1.76-1.8a62.06,62.06,0,0,0-22.52-12.45,45.43,45.43,0,0,0-16.54-1.59,28.15,28.15,0,0,0-11.17,3.21c-2.14,1.15-4.36,2.16-6.49,3.32a19.68,19.68,0,0,0-2.13,1.66c-.75.55-1.45,1.25-2.59,1.07a3.31,3.31,0,0,1,.65-2.42q2.4-4.22,4.92-8.37a11.16,11.16,0,0,1,1.59-2,6.26,6.26,0,0,0,2.09-3.12,1.55,1.55,0,0,1,.8-.93c3.59-1.8,6.09-4.92,9-7.53q6.39-5.74,12.73-11.54a13.83,13.83,0,0,0,1.14-1.36,7.94,7.94,0,0,0-3.76-.57,37.46,37.46,0,0,0-11.27,1.79,26.39,26.39,0,0,0-4.62,2,65.84,65.84,0,0,0-6,3.57,28.41,28.41,0,0,0-6.72,6c-1.66,2.19-3.41,4.29-4.91,6.63a57.13,57.13,0,0,0-5.77,11.61,16.22,16.22,0,0,1-1.19,2.1,5.5,5.5,0,0,1-.64-1.16,6.08,6.08,0,0,0-2.08-3.3c-2-1.84-4.07-.6-4.72,1.17-.3.85-.46,1.74-.71,2.61-.12.42-.29.83-.53,1.52-.91-1.32-1.6-2.37-2.35-3.38a11.68,11.68,0,0,0-1.5-1.64,55.26,55.26,0,0,0-12.85-8.45,64.12,64.12,0,0,0-13.6-4.86,78.08,78.08,0,0,0-13.7-1.76,9.28,9.28,0,0,0-1.58.14,21.85,21.85,0,0,1-3,.37c-2.87-.07-5.54.83-8.24,1.57-1.77.49-3.5,1.13-5.22,1.77a13.93,13.93,0,0,0-2.25,1.13c-1.72,1-3.43,2.11-5.12,3.19-.64.42-1.24.91-2.09,1.53a6,6,0,0,0,1.23.55,105.38,105.38,0,0,1,16.07,3.88c.71.21,1.41.46,2.13.66a5,5,0,0,0,3.17-.46c2.77-1,5.68-1.58,8.54-2.32.16,0,.37.13.61.22-.07.93-.76,1.25-1.36,1.66-1,.66-1.92,1.32-2.84,2a6.77,6.77,0,0,0-.91,1.18,10.09,10.09,0,0,0,1.54.35,25.67,25.67,0,0,1,7.44,1.62c.55.18,1.12.34,1.68.48a2.37,2.37,0,0,0,2-.31c2-1.21,4.23-1.27,6.45-1.43.17,0,.36.15.74.33-1.33,1.43-3.29,1.69-4.47,3.06.06.88.81.89,1.37,1.08,1.8.64,3.66,1.13,5.39,1.91,2.12,1,4.13,2.17,6.18,3.28.16.09.26.3.52.61-.58.37-1.07.73-1.6,1-4.23,2.39-8.59,4.59-12.69,7.19a77.92,77.92,0,0,0-14.44,11.16c-2,2.08-4.24,4-6.15,6.2a70.92,70.92,0,0,0-8.26,11.27c-.21.36-.44.72-.63,1.1-1.09,2.23-2.3,4.43-3.22,6.73a46.57,46.57,0,0,0-1.62,5.63c-.38,1.49-.67,3-1,4.49-.23,1.08-.45,2.15-.68,3.26.45.38.85.06,1.26-.16,3.56-1.9,7.1-3.82,10.67-5.68a2.94,2.94,0,0,0,1.86-2.68c.06-1.69.32-3.38.53-5.06a10.7,10.7,0,0,1,.37-1.39c1.13.29,1.41,1.12,1.67,1.9.53,1.55,1,3.12,1.49,4.67,1.57-.18,9.33-4.4,12.19-6.61-.43-1.62.21-3.17.7-4.71.63-2,1.41-3.89,2.13-5.83.16-.45.3-.93,1.06-.85.62,1.21.15,2.53.23,3.81s.13,2.62.21,4.26c.72-.46,1.15-.71,1.56-1,2.48-1.73,4.94-3.49,7.44-5.18a2.27,2.27,0,0,1,1.7-.49c.73.3.43,1.18.43,1.86,0,5.3-.2,10.62.05,15.91.2,4.33.83,8.64,1.46,12.94a83.45,83.45,0,0,0,1.86,8.69,39.27,39.27,0,0,0,3.25,7.43c.5-1.33.88-2.29,1.21-3.26,1.26-3.72,2.53-7.43,3.72-11.17a4,4,0,0,0,0-2c-.29-1.34-.76-2.64-1.07-4a2.18,2.18,0,0,1,.53-2.09c1.38.48,1.47,2.06,2.69,2.9a15.9,15.9,0,0,0,1-1.51c1.32-2.72,2.61-5.45,3.91-8.18.72-1.53,1.45-3.06,2.13-4.62a2.33,2.33,0,0,0,.25-1.37c-.1-.37-.6-.63-.89-1a4.25,4.25,0,0,1-.66-.87c-.6-1.22-1.16-2.46-1.78-3.79a2.32,2.32,0,0,1,2,.42c.47.23.9.56,1.37.81.88.45,1.16.33,1.54-.61.84-2.07,1.7-4.12,2.52-6.19,1-2.51,1.95-5,2.95-7.55.12-.3.45-.51.69-.76.28.28.7.51.82.85.67,1.9,1.29,3.82,1.88,5.74,1.3,4.26,2.5,8.55,3.9,12.78a41.44,41.44,0,0,1,1.6,5.37c.74,3.84,1.69,7.63,2.56,11.44a3.74,3.74,0,0,0,.24.76c1.11,2.34,1,4.94,1.68,7.37s.88,4.67,1.36,7c.71,3.42,1.46,6.82,2.08,10.26.71,4,1.55,7.91,2,11.91.34,2.73.59,5.47,1.2,8.16.23,1,.07,2.11.21,3.16a19.49,19.49,0,0,0,.61,2.45,2.66,2.66,0,0,1,.22,1.07c-.33,1.69.28,3.23.62,4.82a4.32,4.32,0,0,1,.1,1c0,4,.85,8,1.39,12,.38,2.83.45,5.71.65,8.56.05.63.07,1.26.12,2l-.29.23c2.62-1.14,9.78-4.21,14.63-6.09Z"/><path class="cls-4" d="M552.84,826.54c-.17-.23-.4-.5-.66-.84-8.5-10.81-25.81-15.63-38.71-18.21-40.64-8.13-76.8,10.74-112,28.23-10.43,5.2-21.19,8.49-32.37,11.59,19.47,12.91,40.78,22.43,63.07,24.18,39.36,3.09,66.52-4.11,95.07-22.59a169.37,169.37,0,0,0,16.57-12.24,105.28,105.28,0,0,0,8.22-7.28C553.55,827.87,553.66,827.61,552.84,826.54Z"/><path class="cls-5" d="M335.34,648a32.48,32.48,0,0,1,2.8-3.52"/><path class="cls-6" d="M344.46,638.49c12.19-9.94,37.32-22.52,79.65-10.54,29.05,8.22,55.38,1.65,68.2-2.85"/><path class="cls-5" d="M496.41,623.57c2.66-1.07,4.12-1.8,4.12-1.8"/></g></g></svg>