<svg xmlns="http://www.w3.org/2000/svg" xmlns:xlink="http://www.w3.org/1999/xlink" viewBox="0 0 1119.9 366"><defs><style>.cls-1{fill:url(#linear-gradient);}.cls-2,.cls-4,.cls-5{fill:none;}.cls-3{fill:#b3b3b3;}.cls-4,.cls-5{stroke:#000;stroke-miterlimit:10;stroke-width:3px;}.cls-5{stroke-dasharray:8.71 8.71;}</style><linearGradient id="linear-gradient" x1="93" y1="-57.71" x2="236.05" y2="279.28" gradientUnits="userSpaceOnUse"><stop offset="0.42" stop-color="#959595"/><stop offset="0.52" stop-color="#a4a4a4" stop-opacity="0.86"/><stop offset="0.74" stop-color="#cbcbcb" stop-opacity="0.49"/><stop offset="1" stop-color="#fff" stop-opacity="0"/></linearGradient></defs><g id="Layer_2" data-name="Layer 2"><g id="Layer_1-2" data-name="Layer 1"><path d="M541.24,85.51a61.57,61.57,0,0,0-14.66-6.82q-8-2.55-16.09-4.25t-14.75-3.31A36,36,0,0,1,485,67a7.81,7.81,0,0,1-4.07-6.9A9.55,9.55,0,0,1,483,54q2.07-2.64,6.81-4.25a39.75,39.75,0,0,1,12.48-1.61,67.65,67.65,0,0,1,18,2.55A89.76,89.76,0,0,1,539,58.35l11.54-27.81a82,82,0,0,0-22.42-8.61A112.85,112.85,0,0,0,502.45,19Q483,19,469.91,24.87T450.33,40.38A37.64,37.64,0,0,0,443.8,62q0,10.59,4.16,17.5a33.69,33.69,0,0,0,10.79,11.16,64,64,0,0,0,14.66,6.91,149.83,149.83,0,0,0,16.08,4.35q8,1.71,14.67,3.41a37.29,37.29,0,0,1,10.78,4.35,8.16,8.16,0,0,1,4.16,7.19,8,8,0,0,1-2.17,5.58,15.09,15.09,0,0,1-6.91,3.78,44.54,44.54,0,0,1-12.49,1.42,76.26,76.26,0,0,1-23.17-3.69,86.82,86.82,0,0,1-20.53-9.36l-12.3,27.62q9.47,6.44,24.5,10.5a119.55,119.55,0,0,0,31.32,4.07q19.66,0,32.63-5.86t19.49-15.61A37.49,37.49,0,0,0,556,114q0-10.4-4.07-17.31A32.83,32.83,0,0,0,541.24,85.51Z"/><polygon points="793.18 21.65 761.7 74.2 730.36 21.65 699.52 21.65 690.82 21.65 658.27 21.65 607 76.67 607 21.65 569.91 21.65 569.91 154.09 607 154.09 607 120.91 620.91 106.01 658.84 154.09 702.36 154.09 645.45 80.23 694.24 27.37 741.34 106.06 741.34 154.09 778.8 154.09 778.8 106.65 829.5 21.65 793.18 21.65"/><path d="M740.35,186.07l-60,132.44h19.48l14.55-33.11h70.42l14.55,33.11h19.87L759.08,186.07Zm-19.28,84.19,28.55-65,28.56,65Z"/><polygon points="933.91 284.76 854.44 186.07 838.93 186.07 838.93 318.51 857.85 318.51 857.85 219.82 937.31 318.51 952.83 318.51 952.83 186.07 933.91 186.07 933.91 284.76"/><path d="M1110.91,217.66a61.53,61.53,0,0,0-25.16-23.27q-16.18-8.32-37.37-8.32H992.56V318.51h55.82q21.18,0,37.37-8.33a61.4,61.4,0,0,0,25.16-23.27q9-14.94,9-34.62T1110.91,217.66Zm-16.56,60.64a45.3,45.3,0,0,1-18.63,17.5q-12,6.26-28.48,6.25h-35.76V202.53h35.76q16.47,0,28.48,6.24a45.55,45.55,0,0,1,18.63,17.41q6.63,11.16,6.63,26.11Q1101,267.05,1094.35,278.3Z"/><path d="M553.7,260.36l-14.26-4.7a85.56,85.56,0,0,1-2.52,10.5l-29.61-17c-2.05-1.18-4.1-2.36-6.14-3.57A112.4,112.4,0,0,0,511.23,239q8.13-6,11.82-12.48a27.59,27.59,0,0,0,3.7-14,25.07,25.07,0,0,0-15.52-24.31,42.35,42.35,0,0,0-17.41-3.31A44.73,44.73,0,0,0,475,188.62,29.1,29.1,0,0,0,462.51,199a27.58,27.58,0,0,0-4.45,15.61,30.32,30.32,0,0,0,1.71,10c.1.3.2.59.31.88,2.93,7.72,8.28,13.76,14.56,18.92-3.42,1.85-6.79,3.76-10,5.88-11.82,7.71-22.52,19.5-22.88,33.61-.27,10.32,5.33,20.3,13.48,26.64s18.56,9.33,28.87,9.77c1.36.06,2.72.08,4.08.05a67.93,67.93,0,0,0,42.62-16.26,67.06,67.06,0,0,0,13.5-16L554,294,562.78,281l-12-6.9A65.62,65.62,0,0,0,553.7,260.36Zm-71.07-29a30.06,30.06,0,0,1-7.06-12.08,17.1,17.1,0,0,1,1.74-13.6c3.35-5.16,9.85-7.52,16-7.63,7.52-.14,15.93,3.62,17.86,10.89,2,7.66-3.84,15.13-10.11,20A100.37,100.37,0,0,1,488.57,237,57.32,57.32,0,0,1,482.63,231.39Zm29.55,68a47.64,47.64,0,0,1-22.9,5.49,42.29,42.29,0,0,1-15.61-2.65,23.61,23.61,0,0,1-10.4-7.48,17.69,17.69,0,0,1-3.69-11.06,21.78,21.78,0,0,1,2.74-10.79q2.74-4.92,9.18-9.93a109,109,0,0,1,15.59-9.73c3.14,2,6.3,3.91,9.31,5.82,11.4,7.21,23,14.09,34.59,21C526.5,288.11,520.32,295,512.18,299.4Z"/><path d="M657,254.75a73.77,73.77,0,0,0-15.7-6.44q-8.62-2.44-17.13-4.44a157.89,157.89,0,0,1-15.61-4.45A31.82,31.82,0,0,1,597,232.8c-3-2.77-4.44-6.5-4.44-11.16A18.06,18.06,0,0,1,595.9,211q3.3-4.72,10.5-7.57t18.35-2.83a70.39,70.39,0,0,1,18.35,2.55,60.92,60.92,0,0,1,18,8.23l6.24-15.14a64,64,0,0,0-19.68-8.7,88.37,88.37,0,0,0-22.89-3q-17.41,0-28.66,5.21t-16.65,13.81a34.73,34.73,0,0,0-5.4,18.82q0,10.61,4.36,17.32a32.17,32.17,0,0,0,11.44,10.69,76.77,76.77,0,0,0,15.71,6.52q8.6,2.56,17.12,4.45a126.66,126.66,0,0,1,15.61,4.45,33,33,0,0,1,11.54,6.71,14.37,14.37,0,0,1,4.45,11,17.29,17.29,0,0,1-3.41,10.5q-3.4,4.64-10.59,7.28t-18.74,2.65a69.6,69.6,0,0,1-24.4-4.35,84,84,0,0,1-10-4.48c-2.61-1.37-5.13-2.82-7.81-4.35l-8.5,12.63-.34.51,2.41,1.28q7.59,6.15,19.68,10.21A90.29,90.29,0,0,0,621.53,320q17.41,0,28.86-5.2T667.32,301a34,34,0,0,0,5.49-18.64q0-10.39-4.35-17A32.55,32.55,0,0,0,657,254.75Z"/><circle class="cls-1" cx="195.18" cy="183" r="183"/><path d="M295.6,37.08c-4.23.91-8.24,1.74-12.22,2.68-.43.1-.85.83-1,1.36-.66,2.3-1.3,4.61-1.81,7-.38,1.76-1.69,2.22-3.13,2.37-.44.05-1.25-.62-1.41-1.12Q272.39,38.54,269,27.68a2.32,2.32,0,0,1,.47-2.07c1.06-.73,2.37-1.28,3.63-.24,1.94,1.6,3.89,3.18,5.77,4.84a1.76,1.76,0,0,0,2.25.26c3.49-1.68,7-3.24,10.73-4.92-.61-.67-1.15-1.3-1.74-1.9q-6-6.1-12-12.2c-1.42-1.45-1.22-1.88.65-2.73a8.28,8.28,0,0,1,8.07.47c6.08,3.38,12.38,6.35,18.54,9.6a6.11,6.11,0,0,0,5.34.46,110.84,110.84,0,0,1,12.43-3.72,10.92,10.92,0,0,1,5.65.62c3,1.05,3.74,3.52,2.1,6.31a11.26,11.26,0,0,1-6.33,4.94c-3.29,1.13-6.6,2.23-9.93,3.23a6.33,6.33,0,0,0-4.13,3.5c-3.41,6.9-7.08,13.68-10.38,20.64-1.43,3-4.18,3.08-6.64,3.83-1,.31-.94-.84-.84-1.58.62-4.23,1.26-8.46,1.89-12.69C294.86,42,295.21,39.72,295.6,37.08Z"/><path class="cls-2" d="M199.18,312l-25.41,6.15s.39,4.75-5.54,7.15a16.13,16.13,0,0,0,1.88-.77c1-.53,2-1.22,3-1.83a6,6,0,0,1,.94-.61c3.1-1.21,6.21-2.38,9.3-3.59,5.24-2.05,10.58-3.82,16-5.4a1.51,1.51,0,0,0,1.08-.87C198.75,312.39,199.18,312,199.18,312Z"/><path class="cls-2" d="M198.06,251.68a26.06,26.06,0,0,1,7.23-4.49,4.26,4.26,0,0,0,2.15-1.58c-2.59-1.21-5.47-.61-8.32-1.75l1.91-.63a1.23,1.23,0,0,0-1.73-.67c-1.33.43-2.62,1-3.93,1.47-.65.25-.69.72-.55,1.31q.59,2.59,1.13,5.21c.14.67.24,1.35.35,2C197.11,252.74,197.6,252.12,198.06,251.68Z"/><path d="M196.3,252.58h0v0l.06,0Z"/><path d="M151.72,315.2a23,23,0,0,1-4.87,1.09c-.11-.56-.26-1.13-.33-1.71-.44-3.75-.78-7.52-1.31-11.25-.87-6.12-1.84-12.23-2.8-18.33-.93-5.83-1.8-11.67-2.89-17.48s-2.32-11.71-3.68-17.52c-2.18-9.3-4.37-18.6-6.81-27.83a283.5,283.5,0,0,0-8.77-27.06c-2.76-7.33-5.43-14.68-9.46-21.45a1.17,1.17,0,0,1-.25-.56c0-.38,0-.89.2-1.11a1.2,1.2,0,0,1,1.1-.16,18.89,18.89,0,0,1,2.63,1.58c1.11.79,2.15,1.7,3.26,2.49.78.56,1.68.94,2.44,1.53,3.15,2.44,6.26,4.93,9.38,7.41,1.61,1.28,3.21,2.56,4.78,3.89s3,2.67,4.48,4c.33.28,1,.64,1.19.51a2.51,2.51,0,0,0,.72-1.32,4.17,4.17,0,0,0,.06-1.23c0-1.78,0-3.57,0-5.36,0-.74,0-1.53,1.05-2a12.22,12.22,0,0,1,1.87,2.08c1.7,3,3.28,6.18,4.93,9.26.45.84.8,1.93,1.52,2.39,2.36,1.48,4.86,2.73,7.32,4.06.08,0,.24-.08.46-.16.81-3.14-.7-6.4-.1-9.54a1.61,1.61,0,0,1,2,1.12c.48,1,1,2,1.39,3,1.29,3.18,2.49,6.4,3.8,9.58.87,2.08.88,2.22-.78,3.61-.53.45-1.41.67-1.26,1.8a5.34,5.34,0,0,0,1.11.29c2.75.12,5.5.23,8.25.31A3.67,3.67,0,0,1,175,212c3.47,3.31,7.59,5.88,10.85,9.45a5.77,5.77,0,0,0,1.67,1v0h.05c-.15-.86-.27-1.73-.45-2.59q-.69-3.33-1.45-6.64c-.17-.76-.12-1.36.72-1.68,1.66-.63,3.31-1.33,5-1.87.8-.26,1.74-.32,2.21.85l-2.44.81c3.64,1.45,7.31.69,10.62,2.23a5.33,5.33,0,0,1-2.74,2,33.17,33.17,0,0,0-9.22,5.74c-.59.55-1.21,1.35-2.25,1.14v.05l-.07,0c-.55.84-1.05,1.72-1.66,2.5s-1.21,1.13-1.74,1.75a33.87,33.87,0,0,0-4.65,6c-.92,1.71-2.43,3.11-3.35,4.83-1.83,3.45-3.47,7-5.12,10.55a26.58,26.58,0,0,0-1.77,6.82,5.57,5.57,0,0,0,2.26-1.78,29.16,29.16,0,0,1,8.46-6.81,4.1,4.1,0,0,0,2.13-2.58c.49-1.57,1.07-3.11,1.66-4.66.23-.62.44-1.32,1.43-1.35,1,1.55.2,3.32.53,5.06,2.5-.81,4.55-1.89,5.44-4.57a19.6,19.6,0,0,1,2.12-4c.23-.38.78-.56,1.35-.94.86,1.79.18,3.49.59,5.28a16.63,16.63,0,0,0,1.51-1c3.8-3.06,7.59-6.12,11.36-9.22a6.32,6.32,0,0,1,3.63-1.46,6,6,0,0,1-.28,1.34c-.83,1.8-1.74,3.56-2.55,5.36s-1.52,3.48-2.16,5.27c-.5,1.41-.7,2.94-1.25,4.33-2.48,6.2-4,12.68-5.75,19.11-.63,2.38-1.2,4.78-1.8,7.17,0,.2-.2.39-.19.58.16,2.18-.78,4.15-1.18,6.22-.66,3.5-1.21,7-1.81,10.53-.25,1.42-.55,2.83-.77,4.26-.35,2.3-.64,4.61-1,6.91a2.46,2.46,0,0,1-.16.58,84,84,0,0,0,10.36-2.09l.39-.1-.78.18c-.64.12-1.29.18-2.12.28a16.69,16.69,0,0,1,0-2.26c1-7.06,2-14.13,3.17-21.18.54-3.39,1.24-6.75,2-10.1,1.2-5.64,2.37-11.29,3.75-16.89s3-11.14,4.51-16.7a8.65,8.65,0,0,1,.65-1.74,1,1,0,0,1,1.93,0,10.15,10.15,0,0,1,.75,1.9c.68,1.8,1.38,3.58,2,5.39a2.67,2.67,0,0,0,2.91,2.09,4.35,4.35,0,0,1,1,.26,19.52,19.52,0,0,1-.65,1.92,4.8,4.8,0,0,0,0,4.69c1.21,2.22,2.15,4.59,3.2,6.88h2.36c0,2.47-.66,4.94.4,7.3,1,2.21,1.84,4.5,2.91,7.15.46-.91.78-1.48,1-2.07a39.29,39.29,0,0,0,2.4-8.93,96.29,96.29,0,0,0,1.2-17.87,22.62,22.62,0,0,1,0-2.47c.12-1,.6-1.32,1.58-1,1.44.47,2.84,1,4.27,1.55.49.18,1,.3,1.49.44.48-.83.86-1.51,1.42-2.5a7.64,7.64,0,0,1,1,1.55c.49,1.57,1,3.16,1.31,4.76a2.17,2.17,0,0,0,1.47,1.78c.82.33,1.54.89,2.34,1.29.58.3,1.23.5,1.82.79a3.74,3.74,0,0,1,1,.63c1,.94,1.5.84,2-.47.35-.82.65-1.66,1-2.47.07-.16.31-.24.71-.53a13.9,13.9,0,0,1,.91,2c.22.78.23,1.63.41,2.43.1.45.25,1,.57,1.25,1.56,1,2.93,2.36,4.91,2.43a1.86,1.86,0,0,1,1.77,1.16,1.6,1.6,0,0,0,1.07.78,1.18,1.18,0,0,0,1-.67,4.13,4.13,0,0,0-.2-1.61c-2.42-10.27-8-18.53-15.87-25.46a86.64,86.64,0,0,0-15.55-10.74c-1-.53-2-.92-3-1.44a12.42,12.42,0,0,1-1.54-1.24,52.07,52.07,0,0,1,10.25-4.37c-1.26-.8-2.68-1-2.88-2.57.86-.76,1.82-.23,2.69-.08a23,23,0,0,1,2.33.81,3.24,3.24,0,0,0,1.59.16c2.16-.56,4.29-1.22,6.48-1.85-.73-1.27-2.54-1.54-3.63-3.25a11.33,11.33,0,0,1,6.67,1.24,3.54,3.54,0,0,0,3.12.38,55.83,55.83,0,0,1,12.22-2.8,6.73,6.73,0,0,0,1.18-.36,24.1,24.1,0,0,0-6.25-3.78c-8.15-3.8-16.53-3.38-25-1.19a42.69,42.69,0,0,0-13.83,6.71,41.93,41.93,0,0,0-4.27,3.85c-.44.41-.82.88-1.29,1.39-1.73-.94-1.14-3.91-3.91-3.82l-2.25,3.14c-1.12,0-1.33-.83-1.58-1.6a35.47,35.47,0,0,0-9.66-14.71,25.11,25.11,0,0,0-16.76-7c-.84,0-1.81-.27-2.51.93.61.52,1.23,1,1.8,1.54,3.25,3.06,6.48,6.16,9.76,9.19a20.76,20.76,0,0,0,2.68,1.83c.89.58,2.09.83,1.9,2.35-.05.36.45.8.72,1.2,1.77,2.6,3.57,5.19,5.3,7.83a4.75,4.75,0,0,1,.33,1.65c-1.29.41-1.95-.3-2.66-.78a37.24,37.24,0,0,0-4.44-3,28.85,28.85,0,0,0-17.92-2.13c-1.82.34-1.9.29-2.7-1.34a117.09,117.09,0,0,0-8.93-15.05,143.84,143.84,0,0,0-12.51-15.32A69.4,69.4,0,0,0,141,154.18c-3.34-1.86-6.7-3.78-10.5-4.71a23.15,23.15,0,0,1-2.92-1.15c.53-1.12,1.43-1.11,2.18-1.21,5.92-.76,11.74-2.37,17.76-2.36a7.42,7.42,0,0,0,1.4-.3A6.44,6.44,0,0,0,145,142a8.68,8.68,0,0,1-1.79-.44,1.17,1.17,0,0,1-.49-1,1.11,1.11,0,0,1,.81-.7,6.47,6.47,0,0,1,2.23.3c2.83,1,5.64,2.13,8.47,3.17a4.38,4.38,0,0,0,1.6.27c1.86,0,3.72-.08,5.57-.14l8.86-.28c.72,0,1.45-.09,2.52-.15a7.87,7.87,0,0,0-.87-1.38c-.49-.48-1.11-.82-1.61-1.28s-1.3-.91-.75-1.65c.22-.29,1.17-.3,1.64-.1,2.86,1.17,5.66,2.48,8.52,3.65a9.06,9.06,0,0,0,3.35.82c4.12,0,8.25-.15,12.37-.41a31.21,31.21,0,0,0,4.93-1.16c-1-1-1.57-1.72-2.28-2.32-8.68-7.26-18.2-12.93-29.17-16.13A58.69,58.69,0,0,0,147.52,121,36.55,36.55,0,0,0,133,125.15c-2.78,1.49-5.65,2.81-8.41,4.31a26.51,26.51,0,0,0-2.76,2.14c-1,.72-1.87,1.63-3.35,1.39a4.28,4.28,0,0,1,.84-3.13q3.12-5.46,6.37-10.84a14.51,14.51,0,0,1,2.07-2.56c1.15-1.19,2.37-2.28,2.7-4a2.05,2.05,0,0,1,1-1.2c4.66-2.34,7.89-6.37,11.66-9.76q8.26-7.44,16.49-14.95a16.43,16.43,0,0,0,1.47-1.77,10.4,10.4,0,0,0-4.87-.73,48.19,48.19,0,0,0-14.59,2.33,33.61,33.61,0,0,0-6,2.63,84.3,84.3,0,0,0-7.77,4.64,36.44,36.44,0,0,0-8.71,7.82c-2.16,2.83-4.41,5.55-6.36,8.58a74.54,74.54,0,0,0-7.48,15,19.91,19.91,0,0,1-1.55,2.72,7.23,7.23,0,0,1-.81-1.5,7.93,7.93,0,0,0-2.7-4.27c-2.61-2.39-5.28-.78-6.11,1.52-.4,1.09-.61,2.25-.93,3.37-.16.55-.37,1.07-.68,2-1.19-1.71-2.08-3.07-3-4.38a15,15,0,0,0-1.94-2.12,71.27,71.27,0,0,0-16.65-11,83.76,83.76,0,0,0-17.62-6.3,101.91,101.91,0,0,0-17.75-2.27,12.89,12.89,0,0,0-2.05.17,27,27,0,0,1-3.86.48c-3.72-.09-7.17,1.08-10.67,2-2.29.63-4.53,1.47-6.76,2.29a18.14,18.14,0,0,0-2.92,1.47C7.1,110.63,4.9,112,2.71,113.42c-.84.54-1.62,1.17-2.71,2a8.11,8.11,0,0,0,1.59.72c7.12.91,14,3,20.82,5,.92.27,1.83.6,2.76.85,1.45.41,2.68-.08,4.1-.58,3.59-1.28,7.36-2.06,11.07-3,.21-.05.48.16.79.28-.1,1.2-1,1.62-1.76,2.15-1.24.86-2.49,1.71-3.68,2.62A8.72,8.72,0,0,0,34.51,125a12.11,12.11,0,0,0,2,.46,33.13,33.13,0,0,1,9.64,2.1c.71.24,1.45.44,2.18.62a3.08,3.08,0,0,0,2.54-.4c2.55-1.56,5.48-1.64,8.35-1.85.23,0,.47.2,1,.43-1.72,1.84-4.27,2.18-5.79,4,.08,1.14,1,1.15,1.78,1.41,2.33.82,4.74,1.45,7,2.47,2.74,1.25,5.34,2.8,8,4.24.21.12.34.4.67.79-.75.49-1.38.95-2.07,1.34-5.48,3.09-11.12,5.94-16.44,9.31-6.66,4.23-13.15,8.75-18.7,14.45-2.63,2.71-5.5,5.2-8,8A91.35,91.35,0,0,0,15.94,187c-.28.47-.59.93-.83,1.42-1.41,2.9-3,5.74-4.17,8.72a58.6,58.6,0,0,0-2.09,7.3c-.5,1.93-.88,3.88-1.3,5.82-.3,1.39-.58,2.79-.88,4.22.57.49,1.1.07,1.63-.21,4.61-2.45,9.19-4.94,13.82-7.35a3.79,3.79,0,0,0,2.41-3.48c.08-2.19.42-4.38.69-6.56A13,13,0,0,1,25.7,195c1.46.37,1.82,1.44,2.16,2.46.69,2,1.3,4,1.94,6,2-.23,12.08-5.69,15.79-8.56-.56-2.1.27-4.1.9-6.09.81-2.56,1.82-5,2.75-7.56.22-.58.39-1.21,1.38-1.11.8,1.57.2,3.29.3,4.94s.17,3.39.27,5.53c.94-.6,1.5-.93,2-1.3,3.21-2.24,6.39-4.52,9.63-6.71a2.94,2.94,0,0,1,2.2-.64c1,.39.56,1.53.55,2.41,0,6.87-.25,13.76.07,20.61.27,5.61,1.08,11.2,1.9,16.76A106.57,106.57,0,0,0,70,233.09c.85,3.23,2.49,6.17,4.22,9.62.64-1.73,1.14-3,1.57-4.22,1.63-4.82,3.27-9.63,4.81-14.48a5.12,5.12,0,0,0,0-2.58c-.38-1.74-1-3.42-1.39-5.16a2.86,2.86,0,0,1,.68-2.71c1.79.62,1.92,2.66,3.49,3.76a21.45,21.45,0,0,0,1.24-2c1.71-3.52,3.38-7.06,5.06-10.59.94-2,1.88-4,2.76-6a3,3,0,0,0,.32-1.77c-.13-.48-.77-.82-1.15-1.24a5.51,5.51,0,0,1-.86-1.14c-.77-1.58-1.5-3.18-2.3-4.9a3,3,0,0,1,2.57.54c.62.3,1.17.72,1.78,1,1.14.59,1.5.43,2-.79,1.09-2.67,2.2-5.33,3.26-8,1.29-3.26,2.52-6.53,3.83-9.78.15-.39.58-.66.88-1,.37.36.92.65,1.07,1.09.87,2.46,1.67,4.95,2.44,7.44,1.69,5.52,3.23,11.08,5,16.55a55.67,55.67,0,0,1,2.07,7c1,5,2.19,9.89,3.32,14.83a4.66,4.66,0,0,0,.31,1c1.43,3,1.33,6.4,2.17,9.55.81,3,1.15,6,1.77,9,.92,4.43,1.89,8.84,2.69,13.29.92,5.13,2,10.25,2.64,15.42.44,3.55.77,7.09,1.56,10.58.3,1.32.09,2.74.26,4.09a30.19,30.19,0,0,0,.8,3.18,3.77,3.77,0,0,1,.29,1.39c-.43,2.18.35,4.18.8,6.24a6.24,6.24,0,0,1,.13,1.22c0,5.25,1.1,10.38,1.8,15.55.5,3.67.58,7.39.84,11.09.06.82.1,1.64.15,2.65l-.38.29c3.41-1.47,12.69-5.45,19-7.89Z"/><path class="cls-3" d="M329.45,306.78c-.23-.31-.52-.66-.86-1.1-11-14-33.43-20.25-50.15-23.59-52.65-10.53-99.48,13.91-145,36.58-13.52,6.72-27.46,11-41.94,15,25.22,16.72,52.83,29.06,81.7,31.32,51,4,86.18-5.33,123.17-29.26a221.75,221.75,0,0,0,21.47-15.86,138.22,138.22,0,0,0,10.65-9.43C330.36,308.5,330.51,308.16,329.45,306.78Z"/><path class="cls-4" d="M47.68,75.5a39.09,39.09,0,0,1,2.75-3.56"/><path class="cls-5" d="M56.51,65.72C71,52.65,104.12,32.92,162.68,49.5c39.62,11.21,75.34,1.19,90.84-4.59"/><path class="cls-4" d="M257.57,43.32c2.67-1.1,4.11-1.82,4.11-1.82"/></g></g></svg>